<svg width="21" height="21" xmlns="http://www.w3.org/2000/svg"><g stroke="#000" stroke-width=".75" fill="none" fill-rule="evenodd" stroke-linecap="round" stroke-linejoin="round"><path d="M1.991 2.913h17.5c.483 0 .875.395.875.882v15.882a.879.879 0 01-.875.883h-17.5a.879.879 0 01-.875-.883V3.795c0-.487.392-.882.875-.882zM3.741 1.148v2.647M7.241 1.148v2.647M10.741 1.148v2.647M14.241 1.148v2.647M17.741 1.148v2.647"/><path d="M11.616 7.324h2.625v3.529h0-3.5 0V8.206c0-.487.392-.882.875-.882zM14.241 7.324h2.625c.483 0 .875.395.875.882v2.647h0-3.5 0v-3.53h0zM10.741 10.854h3.5v3.53h-3.5zM14.241 10.854h3.5v3.53h-3.5z"/><path d="M10.741 14.383h3.5v3.53h-3.5zM14.241 14.382h3.5v2.647a.879.879 0 01-.875.883h-2.625 0v-3.53h0zM4.616 10.853h2.625v3.53h0-3.5 0v-2.648c0-.487.392-.882.875-.882zM7.241 10.854h3.5v3.53h-3.5z"/><path d="M3.741 14.382h3.5v3.53h0-2.625a.879.879 0 01-.875-.883v-2.647h0zM7.241 14.383h3.5v3.53h-3.5z"/></g></svg>