<svg xmlns="http://www.w3.org/2000/svg" viewBox="0 0 21 21"><g fill="none" fill-rule="evenodd" stroke-linecap="round" stroke-linejoin="round" stroke-width=".75"><path d="M1.991 2.913h17.5c.483 0 .875.395.875.882v15.882a.879.879 0 01-.875.883h-17.5a.879.879 0 01-.875-.883V3.795c0-.487.392-.882.875-.882zm1.75-1.765v2.647m3.5-2.647v2.647m3.5-2.647v2.647m3.5-2.647v2.647m3.5-2.647v2.647"/><path d="M11.616 7.324h2.625v3.529h-3.5V8.206c0-.487.392-.882.875-.882zm2.625 0h2.625c.483 0 .875.395.875.882v2.647h-3.5v-3.53zm-3.5 3.53h3.5v3.53h-3.5zm3.5 0h3.5v3.53h-3.5z"/><path d="M10.741 14.383h3.5v3.53h-3.5zm3.5-.001h3.5v2.647a.879.879 0 01-.875.883h-2.625v-3.53zm-9.625-3.529h2.625v3.53h-3.5v-2.648c0-.487.392-.882.875-.882zm2.625.001h3.5v3.53h-3.5z"/><path d="M3.741 14.382h3.5v3.53H4.616a.879.879 0 01-.875-.883v-2.647zm3.5.001h3.5v3.53h-3.5z"/></g></svg>