<svg width="20" height="20" xmlns="http://www.w3.org/2000/svg"><g stroke="#000" fill="none" fill-rule="evenodd" stroke-linecap="round" stroke-linejoin="round"><path d="M4.375 7.375H11.5M4.375 9.625h4.5M4.375 5.125h5.25M4.375 11.875h3M4.375 14.125h3M8.875 18.625h-6.75a.75.75 0 01-.75-.75V2.125a.75.75 0 01.75-.75h9.97c.198 0 .39.079.53.22l2.78 2.78c.141.14.22.332.22.53v2.47"/><path d="M14.125 9.625a4.5 4.5 0 110 9 4.5 4.5 0 010-9zM14.125 11.875v4.5M14.125 16.375l-1.687-1.687M14.125 16.375l1.688-1.687"/></g></svg>