<svg width="17" height="22" xmlns="http://www.w3.org/2000/svg"><g stroke="#000" fill="none" fill-rule="evenodd" stroke-linecap="round" stroke-linejoin="round"><path d="M1.439 18.333h14.035c.242 0 .438.194.438.434V20.5c0 .24-.196.433-.438.433H1.439A.436.436 0 011 20.5v-1.733c0-.24.196-.434.439-.434zM15.035 18.333c0-1.436-1.178-2.6-2.631-2.6H4.509c-1.454 0-2.632 1.164-2.632 2.6h13.158z"/><path d="M4.509 7.933h7.895v7.8H4.509zM14.158 5.767c0 .239-.197.433-.439.433H3.193a.436.436 0 01-.439-.433V1.433c0-.239.197-.433.439-.433h1.754c.242 0 .439.194.439.433v1.3H7.14v-1.3c0-.239.197-.433.439-.433h1.754c.242 0 .439.194.439.433v1.3h1.754v-1.3c0-.239.197-.433.439-.433h1.754c.242 0 .439.194.439.433v4.334z"/><path d="M3.632 6.2h9.649v1.3c0 .24-.197.433-.439.433H4.07a.436.436 0 01-.438-.433V6.2h0z"/></g></svg>