<?xml version="1.0" encoding="utf-8"?>
<svg xmlns="http://www.w3.org/2000/svg">
<symbol id="add"><path d="M10.917 1v19.835m9.918-9.918H1" stroke="#000" fill="none" fill-rule="evenodd" stroke-linecap="round" stroke-linejoin="round"/>
</symbol>
<symbol id="badges"><g stroke="#000" fill="none" fill-rule="evenodd" stroke-linecap="round" stroke-linejoin="round"><path d="M3.929 12.775L1.061 17.52a.423.423 0 00.164.591.47.47 0 00.303.053l2.532-.41.882 2.321a.457.457 0 00.579.26.445.445 0 00.235-.186l2.462-3.993M17.968 12.775l2.868 4.745a.423.423 0 01-.164.591.47.47 0 01-.303.053l-2.532-.41-.882 2.321a.457.457 0 01-.579.26.445.445 0 01-.235-.186l-2.462-3.993"/><path d="M10.934 1c4.496 0 8.14 3.492 8.14 7.8s-3.644 7.8-8.14 7.8c-4.495 0-8.14-3.492-8.14-7.8S6.44 1 10.935 1z"/><path d="M11.466 4.778l1.16 2.291h2.26a.545.545 0 01.568.518.524.524 0 01-.182.407l-1.959 1.85 1.086 2.393a.558.558 0 01-.319.741.613.613 0 01-.523-.032l-2.623-1.416-2.623 1.416a.606.606 0 01-.808-.207.545.545 0 01-.034-.502l1.086-2.393-1.96-1.85a.515.515 0 01-.045-.749.562.562 0 01.434-.177h2.26l1.162-2.29a.61.61 0 011.06 0z"/></g>
</symbol>
<symbol id="calendar"><g stroke="#000" stroke-width=".75" fill="none" fill-rule="evenodd" stroke-linecap="round" stroke-linejoin="round"><path d="M1.991 2.913h17.5c.483 0 .875.395.875.882v15.882a.879.879 0 01-.875.883h-17.5a.879.879 0 01-.875-.883V3.795c0-.487.392-.882.875-.882zM3.741 1.148v2.647M7.241 1.148v2.647M10.741 1.148v2.647M14.241 1.148v2.647M17.741 1.148v2.647"/><path d="M11.616 7.324h2.625v3.529h0-3.5 0V8.206c0-.487.392-.882.875-.882zM14.241 7.324h2.625c.483 0 .875.395.875.882v2.647h0-3.5 0v-3.53h0zM10.741 10.854h3.5v3.53h-3.5zM14.241 10.854h3.5v3.53h-3.5z"/><path d="M10.741 14.383h3.5v3.53h-3.5zM14.241 14.382h3.5v2.647a.879.879 0 01-.875.883h-2.625 0v-3.53h0zM4.616 10.853h2.625v3.53h0-3.5 0v-2.648c0-.487.392-.882.875-.882zM7.241 10.854h3.5v3.53h-3.5z"/><path d="M3.741 14.382h3.5v3.53h0-2.625a.879.879 0 01-.875-.883v-2.647h0zM7.241 14.383h3.5v3.53h-3.5z"/></g>
</symbol>
<symbol id="clear"><g stroke="#000" fill="none" fill-rule="evenodd" stroke-linecap="round" stroke-linejoin="round"><path d="M10 1.375a8.625 8.625 0 110 17.25 8.625 8.625 0 010-17.25zM6.25 6.25l7.5 7.5M13.75 6.25l-7.5 7.5"/></g>
</symbol>
<symbol id="close"><g stroke="#000" stroke-width="1.25" fill="none" fill-rule="evenodd" stroke-linecap="round" stroke-linejoin="round"><path d="M1.007 1.395l18.158 18.208M19.165 1.395L1.007 19.603"/></g>
</symbol>
<symbol id="down"><path d="M1 0l9.674 10.854a.437.437 0 00.651 0L21 0" stroke="#000" fill="none" fill-rule="evenodd" stroke-linecap="round" stroke-linejoin="round"/>
</symbol>
<symbol id="edit"><g stroke="#000" fill="none" fill-rule="evenodd" stroke-linecap="round" stroke-linejoin="round"><path d="M10.426 11.288l-2.846.408.407-2.847 7.319-7.318a1.724 1.724 0 112.438 2.439l-7.318 7.318z"/><path d="M9.625 4.775H2.5a1.5 1.5 0 00-1.5 1.5v10.5a1.5 1.5 0 001.5 1.5H13a1.5 1.5 0 001.5-1.5V9.65"/></g>
</symbol>
<symbol id="export"><g stroke="#000" fill="none" fill-rule="evenodd" stroke-linecap="round" stroke-linejoin="round"><path d="M4.375 7.375H11.5M4.375 9.625h4.5M4.375 5.125h5.25M4.375 11.875h3M4.375 14.125h3M8.875 18.625h-6.75a.75.75 0 01-.75-.75V2.125a.75.75 0 01.75-.75h9.97c.198 0 .39.079.53.22l2.78 2.78c.141.14.22.332.22.53v2.47"/><path d="M14.125 9.625a4.5 4.5 0 110 9 4.5 4.5 0 010-9zM14.125 11.875v4.5M14.125 16.375l-1.687-1.687M14.125 16.375l1.688-1.687"/></g>
</symbol>
<symbol id="filter"><path d="M17.409 2.333a.837.837 0 00-.166-1.166.824.824 0 00-.497-.167H1.828A.83.83 0 001 1.833c0 .18.058.356.166.5l6.464 8.743v8.257c0 .46.37.834.828.834A.824.824 0 008.955 20l1.656-1.25a.835.835 0 00.33-.667v-7.008l6.468-8.742z" stroke="#000" fill="none" fill-rule="evenodd" stroke-linecap="round" stroke-linejoin="round"/>
</symbol>
<symbol id="follow"><g stroke="#000" fill="none" fill-rule="evenodd" stroke-linecap="round" stroke-linejoin="round"><path d="M15.583 10.583a5 5 0 11.001 10 5 5 0 010-10zM15.583 13.083v5M18.083 15.583h-5M7.25 1.417a3.542 3.542 0 110 7.084 3.542 3.542 0 010-7.084zM8.083 15.583H1.417a5.833 5.833 0 018.985-4.908"/></g>
</symbol>
<symbol id="help"><g stroke="#000" stroke-width=".75" fill="none" fill-rule="evenodd" stroke-linecap="round" stroke-linejoin="round"><path d="M10.706 1c5.36 0 9.706 4.346 9.706 9.706 0 5.36-4.346 9.706-9.706 9.706-5.36 0-9.706-4.346-9.706-9.706C1 5.346 5.346 1 10.706 1z"/><path d="M10.706 15.117a.22.22 0 100 .441.22.22 0 000-.441h0M8.059 8.945a2.647 2.647 0 113.706 2.425 1.765 1.765 0 00-1.06 1.618v.364"/></g>
</symbol>
<symbol id="hobby"><g stroke="#000" fill="none" fill-rule="evenodd" stroke-linecap="round" stroke-linejoin="round"><path d="M1.439 18.333h14.035c.242 0 .438.194.438.434V20.5c0 .24-.196.433-.438.433H1.439A.436.436 0 011 20.5v-1.733c0-.24.196-.434.439-.434zM15.035 18.333c0-1.436-1.178-2.6-2.631-2.6H4.509c-1.454 0-2.632 1.164-2.632 2.6h13.158z"/><path d="M4.509 7.933h7.895v7.8H4.509zM14.158 5.767c0 .239-.197.433-.439.433H3.193a.436.436 0 01-.439-.433V1.433c0-.239.197-.433.439-.433h1.754c.242 0 .439.194.439.433v1.3H7.14v-1.3c0-.239.197-.433.439-.433h1.754c.242 0 .439.194.439.433v1.3h1.754v-1.3c0-.239.197-.433.439-.433h1.754c.242 0 .439.194.439.433v4.334z"/><path d="M3.632 6.2h9.649v1.3c0 .24-.197.433-.439.433H4.07a.436.436 0 01-.438-.433V6.2h0z"/></g>
</symbol>
<symbol id="indoor"><g stroke="#000" fill="none" fill-rule="evenodd" stroke-linecap="round" stroke-linejoin="round"><path d="M10.533 10.967h10.4M14 7.5l-3.467 3.467L14 14.433M8.8 2.733h6.5c.24 0 .433.194.433.434v2.166M15.733 16.6v2.167c0 .239-.194.433-.433.433H8.8"/><path d="M1 18.96c0 .203.141.379.34.423l6.933 1.54A.433.433 0 008.8 20.5V1.433a.433.433 0 00-.527-.423L1.34 2.551a.434.434 0 00-.34.423V18.96z"/><path d="M5.767 9.667a1.3 1.3 0 11-.001 2.6 1.3 1.3 0 010-2.6z"/></g>
</symbol>
<symbol id="interest"><g stroke="#000" fill="none" fill-rule="evenodd" stroke-linecap="round" stroke-linejoin="round"><path d="M3.907 18.846C.031 14.763.031 8.143 3.907 4.062c3.878-4.082 10.162-4.083 14.037 0 3.877 4.083 3.877 10.702 0 14.785-1.854 1.953-4.859 1.953-6.713.001v-.001L7.568 14.99a.832.832 0 00-1.219.064.944.944 0 00.001 1.22c.674.711.674 1.863 0 2.573-.676.711-1.77.71-2.444 0z"/><path d="M15.5 7.918a1.248 1.248 0 01-1.83 0 1.415 1.415 0 01-.001-1.927 1.248 1.248 0 011.83-.001h.001a1.415 1.415 0 010 1.928zM16.967 10.543c.477 0 .863.408.863.91 0 .501-.386.909-.863.909-.476 0-.863-.408-.863-.91 0-.501.387-.909.863-.909zM13.367 17.24a1.887 1.887 0 010-2.571 1.665 1.665 0 012.44 0c.674.71.674 1.86 0 2.57 0 0 0 0 0 0-.674.71-1.766.71-2.44 0zM10.315 5.025a1.415 1.415 0 010 1.928 1.249 1.249 0 01-1.83.002 1.416 1.416 0 01-.001-1.929s0 0 0 0a1.249 1.249 0 011.83 0z"/></g>
</symbol>
<symbol id="menu"><g stroke="#000" fill="none" fill-rule="evenodd" stroke-linecap="round" stroke-linejoin="round"><path d="M3.5 1.417a2.083 2.083 0 110 4.166 2.083 2.083 0 010-4.166zM11 1.417a2.083 2.083 0 110 4.166 2.083 2.083 0 010-4.166zM18.5 1.417a2.083 2.083 0 110 4.166 2.083 2.083 0 010-4.166z"/></g>
</symbol>
<symbol id="message"><g stroke="#000" fill="none" fill-rule="evenodd" stroke-linecap="round" stroke-linejoin="round"><path d="M15.583 10.583a5 5 0 11.001 10 5 5 0 010-10zM15.583 13.083v5M18.083 15.583h-5"/><path d="M18.776 9.73c.09-.403.138-.816.14-1.23 0-3.912-3.916-7.083-8.75-7.083-4.833 0-8.75 3.171-8.75 7.083a6.45 6.45 0 002.516 4.967L2.25 17.25l4.697-2.167a10.42 10.42 0 001.974.417"/></g>
</symbol>
<symbol id="navigate"><g stroke="#000" fill="none" fill-rule="evenodd" stroke-linecap="round" stroke-linejoin="round"><path d="M17.432 9.25H.568M8.443 17.5l8.732-7.687a.75.75 0 000-1.125L8.443 1"/></g>
</symbol>
<symbol id="no"><g fill="none" fill-rule="evenodd" stroke-linecap="round" stroke-linejoin="round"><path d="M3.5 6.36h0a1.319 1.319 0 01-1.313-1.324c0-.73.589-1.323 1.313-1.323h.875a1.319 1.319 0 01-1.313-1.324c0-.731.589-.882 1.313-.882h5.688c2.494 0 3.062.44 6.124.882v7.5c-2.143 0-5.687 3.97-5.687 7.5 0 1.395-1.915 1.915-2.625-.634-.438-1.572.875-4.66.875-4.66h-7a1.319 1.319 0 01-1.313-1.324c0-.731.589-1.764 1.313-1.764h.875a1.319 1.319 0 01-1.313-1.324c0-.73.589-1.323 1.313-1.323H3.5M16.188.624h4.375v10.589h-4.375z" stroke="#000" stroke-width=".75"/><path d="M18.156 2.83a.22.22 0 00.219-.22.22.22 0 00-.219-.22.22.22 0 00-.218.22c0 .121.098.22.218.22" stroke="#000" stroke-width=".75"/></g>
</symbol>
<symbol id="outdoor"><g stroke="#000" fill="none" fill-rule="evenodd" stroke-linecap="round" stroke-linejoin="round"><path d="M11.636 11.844L9.802 9.498c.33.34.871.346 1.21.016a.857.857 0 00.015-1.211h0L8.613 5.387c.844.84 1.986-.327 1.146-1.273L7.104 1.285a.906.906 0 00-1.32 0L3.13 4.116c-.84.944.302 2.111 1.145 1.273L1.86 8.303a.858.858 0 00.016 1.211c.339.33.88.323 1.21-.016l-1.835 2.346a.858.858 0 00.603 1.464h9.178a.856.856 0 00.603-1.464zM21.198 10.106l-2.057-2.762c.719.797 1.577-.363.976-1.202l-2.058-2.77a.898.898 0 00-1.452 0l-2.053 2.77c-.6.835.258 2 .977 1.202l-2.058 2.762a.848.848 0 00.425 1.385h6.875a.847.847 0 00.425-1.385zM6.444 13.309v3.636M17.333 11.491v2.727M1 17.376a15.428 15.428 0 0113.566 3.203M11.046 16.277A13.622 13.622 0 0121.87 14.71"/></g>
</symbol>
<symbol id="popular"><g stroke="#000" fill="none" fill-rule="evenodd" stroke-linecap="round" stroke-linejoin="round"><path d="M8.8 10.534h4.333c.479 0 .867.388.867.866v8.667a.867.867 0 01-.867.867H8.8a.867.867 0 01-.867-.867V11.4c0-.478.389-.866.867-.866zM1.867 15.734h3.466c.479 0 .867.388.867.866v3.467a.867.867 0 01-.867.867H1.867A.867.867 0 011 20.067V16.6c0-.478.388-.866.867-.866zM16.6 18.334h3.467c.478 0 .866.388.866.866v.867a.867.867 0 01-.866.867H16.6a.867.867 0 01-.867-.867V19.2c0-.478.389-.866.867-.866zM12.267 3.6h1.665a.433.433 0 01.253.785L12.8 5.39l.854 1.964a.432.432 0 01-.606.55l-2.08-1.166-2.073 1.166a.434.434 0 01-.606-.55l.854-1.964-1.386-1.006a.433.433 0 01.248-.785h1.663l.896-2.322a.433.433 0 01.808 0l.896 2.322zM3.6 10.534a1.733 1.733 0 11.001 3.465 1.733 1.733 0 01-.001-3.465zM18.333 13.134a1.733 1.733 0 11.001 3.465 1.733 1.733 0 010-3.465z"/></g>
</symbol>
<symbol id="preview"><g stroke="#000" stroke-width="1.25" fill="none" fill-rule="evenodd" stroke-linecap="round" stroke-linejoin="round"><path d="M9.353 5.125a3.853 3.853 0 110 7.706 3.853 3.853 0 010-7.706zM12.077 11.702l2.423 2.423"/><path d="M2.875 1h14.25a1.5 1.5 0 011.5 1.5v14.25a1.5 1.5 0 01-1.5 1.5H2.875a1.5 1.5 0 01-1.5-1.5V2.5a1.5 1.5 0 011.5-1.5z"/></g>
</symbol>
<symbol id="search"><g stroke="#000" fill="none" fill-rule="evenodd" stroke-linecap="round" stroke-linejoin="round"><path d="M8.083 1.417a6.667 6.667 0 110 13.334 6.667 6.667 0 010-13.334zM12.797 12.797l7.786 7.786"/></g>
</symbol>
<symbol id="share"><g stroke="#000" fill="none" fill-rule="evenodd" stroke-linecap="round" stroke-linejoin="round"><path d="M9.625 7.75a2.25 2.25 0 110 4.499 2.25 2.25 0 010-4.5zM13 18.25c-.234-2.544-1.675-4.5-3.375-4.5s-3.14 1.956-3.375 4.5H13z"/><path d="M13.6 13.6a5.625 5.625 0 10-7.955-.005l.005.005"/><path d="M15.724 15.723a8.624 8.624 0 000-12.197A8.625 8.625 0 003.525 15.723"/></g>
</symbol>
<symbol id="tutorial"><g stroke="#000" stroke-width=".75" fill="none" fill-rule="evenodd" stroke-linecap="round" stroke-linejoin="round"><path d="M12.736 20.17v-2.5h.838a2.507 2.507 0 002.515-2.5v-2.5h2.358a.419.419 0 00.396-.544c-1.57-4.833-2.708-10.029-7.896-10.972-4.54-.875-8.934 2.075-9.814 6.589-.04.207-.073.415-.097.624a8.085 8.085 0 003.318 7.313v4.49"/><path d="M6.868 7.253c0-1.381 1.125-2.501 2.513-2.502a2.507 2.507 0 012.517 2.499 2.504 2.504 0 01-1.879 2.42.806.806 0 00-.636.767v1.4M9.383 13.503c.116 0 .21.093.21.208a.209.209 0 01-.21.209.209.209 0 01-.21-.209c0-.115.094-.208.21-.208"/></g>
</symbol>
<symbol id="up"><path d="M21 12L11.326 1.146a.437.437 0 00-.651 0L1 12" stroke="#000" fill="none" fill-rule="evenodd" stroke-linecap="round" stroke-linejoin="round"/>
</symbol>
<symbol id="user"><g stroke="#000" fill="none" fill-rule="evenodd" stroke-linecap="round" stroke-linejoin="round"><path d="M10.582 1.417c5.292 0 9.583 4.29 9.583 9.583s-4.29 9.583-9.583 9.583S.999 16.293.999 11s4.29-9.583 9.583-9.583z"/><path d="M10.582 4.75a3.542 3.542 0 110 7.084 3.542 3.542 0 010-7.084zM15.846 16.417a5.823 5.823 0 00-10.528 0"/></g>
</symbol>
<symbol id="visibility"><g stroke="#000" fill="none" fill-rule="evenodd" stroke-linecap="round" stroke-linejoin="round"><path d="M13.499 13.918h5.833c.46 0 .833.373.833.833v4.999c0 .46-.373.833-.833.833h-5.833a.834.834 0 01-.834-.833v-5c0-.46.374-.832.834-.832z"/><path d="M16.415 16.26a1.042 1.042 0 110 2.085 1.042 1.042 0 010-2.084zM18.499 12.667a2.083 2.083 0 10-4.167 0v1.25h4.167v-1.25zM10.582 3.917a2.917 2.917 0 110 5.833 2.917 2.917 0 010-5.833zM10.582 5.583a1.25 1.25 0 11-1.25 1.25"/><path d="M17.869 9.21a19.155 19.155 0 002.193-2.103.418.418 0 000-.547c-.97-1.1-4.845-5.143-9.48-5.143-4.635 0-8.511 4.043-9.48 5.143a.418.418 0 000 .547c.969 1.1 4.845 5.143 9.48 5.143a8.615 8.615 0 002.148-.28"/></g>
</symbol>
<symbol id="warning"><g stroke="#000" fill="none" fill-rule="evenodd" stroke-linecap="round" stroke-linejoin="round"><path d="M22.876 19.71c.187.232.128.555-.132.722a.634.634 0 01-.431.09H1.949c-.315.046-.613-.145-.665-.427a.474.474 0 01.102-.385l10.29-18.374c.25-.447.66-.447.91 0l10.29 18.374zM12.131 14.617V8.254"/><path d="M12.122 16.435c-.139.003-.249.105-.246.229v.003c.006.125.12.223.26.223h.004c.139-.003.249-.105.246-.228v-.004c-.006-.123-.118-.22-.255-.223h-.005"/></g>
</symbol>
<symbol id="website"><g stroke="#000" fill="none" fill-rule="evenodd" stroke-linecap="round" stroke-linejoin="round"><path d="M2.423 14.125h5.702M2.884 5.125h14.238M7.375 9.625H1.383M9.452 1.395c-4.5 4.875-4.418 11.218.082 17.218M10.547 1.395A12.094 12.094 0 0113.75 7.75M18.625 10A8.625 8.625 0 1010 18.625"/><path d="M15.974 13.306l1.643-1.644a.375.375 0 00-.163-.626L9.28 8.707a.375.375 0 00-.463.463l2.325 8.175a.375.375 0 00.627.163l1.537-1.537 2.387 2.386a.375.375 0 00.53 0l2.138-2.132a.375.375 0 000-.53l-2.386-2.389z"/></g>
</symbol>
<symbol id="yes"><g fill="none" fill-rule="evenodd" stroke-linecap="round" stroke-linejoin="round"><path d="M17.5 12.817h0c.724 0 1.313.593 1.313 1.323s-.588 1.324-1.313 1.324h-.875c.724 0 1.313.593 1.313 1.323 0 .732-.588.883-1.313.883h-5.688c-2.494 0-3.062-.441-6.124-.883v-7.5c2.143 0 5.687-3.97 5.687-7.5 0-1.395 1.915-1.914 2.625.635.438 1.571-.875 4.66-.875 4.66h7c.724 0 1.313.592 1.313 1.323s-.588 1.765-1.313 1.765h-.875c.724 0 1.313.593 1.313 1.323s-.588 1.324-1.313 1.324H17.5M.438 7.964h4.375v10.588H.438z" stroke="#000" stroke-width=".75"/><path d="M2.844 16.346a.22.22 0 00-.219.22c0 .123.098.221.219.221a.22.22 0 00.219-.22.22.22 0 00-.22-.22" stroke="#000" stroke-width=".75"/></g>
</symbol></svg>