<svg xmlns="http://www.w3.org/2000/svg" viewBox="0 0 22 22"><g fill="none" fill-rule="evenodd" stroke-linecap="round" stroke-linejoin="round"><path d="M10.533 10.967h10.4M14 7.5l-3.467 3.467L14 14.433m-5.2-11.7h6.5c.24 0 .433.194.433.434v2.166m0 11.267v2.167a.433.433 0 01-.433.433H8.8"/><path d="M1 18.96c0 .203.141.379.34.423l6.933 1.54A.433.433 0 008.8 20.5V1.433a.433.433 0 00-.527-.423L1.34 2.551a.434.434 0 00-.34.423V18.96z"/><path d="M5.767 9.667a1.3 1.3 0 11-.001 2.6 1.3 1.3 0 010-2.6z"/></g></svg>