<svg width="22" height="21" xmlns="http://www.w3.org/2000/svg"><g stroke="#000" fill="none" fill-rule="evenodd" stroke-linecap="round" stroke-linejoin="round"><path d="M3.907 18.846C.031 14.763.031 8.143 3.907 4.062c3.878-4.082 10.162-4.083 14.037 0 3.877 4.083 3.877 10.702 0 14.785-1.854 1.953-4.859 1.953-6.713.001v-.001L7.568 14.99a.832.832 0 00-1.219.064.944.944 0 00.001 1.22c.674.711.674 1.863 0 2.573-.676.711-1.77.71-2.444 0z"/><path d="M15.5 7.918a1.248 1.248 0 01-1.83 0 1.415 1.415 0 01-.001-1.927 1.248 1.248 0 011.83-.001h.001a1.415 1.415 0 010 1.928zM16.967 10.543c.477 0 .863.408.863.91 0 .501-.386.909-.863.909-.476 0-.863-.408-.863-.91 0-.501.387-.909.863-.909zM13.367 17.24a1.887 1.887 0 010-2.571 1.665 1.665 0 012.44 0c.674.71.674 1.86 0 2.57 0 0 0 0 0 0-.674.71-1.766.71-2.44 0zM10.315 5.025a1.415 1.415 0 010 1.928 1.249 1.249 0 01-1.83.002 1.416 1.416 0 01-.001-1.929s0 0 0 0a1.249 1.249 0 011.83 0z"/></g></svg>