<svg xmlns="http://www.w3.org/2000/svg" viewBox="0 0 21 19"><g fill="none" fill-rule="evenodd" stroke-linecap="round" stroke-linejoin="round" stroke-width=".75"><path d="M3.5 6.36a1.319 1.319 0 01-1.313-1.324c0-.73.589-1.323 1.313-1.323h.875a1.319 1.319 0 01-1.313-1.324c0-.731.589-.882 1.313-.882h5.688c2.494 0 3.062.44 6.124.882v7.5c-2.143 0-5.687 3.97-5.687 7.5 0 1.395-1.915 1.915-2.625-.634-.438-1.572.875-4.66.875-4.66h-7a1.319 1.319 0 01-1.313-1.324c0-.731.589-1.764 1.313-1.764h.875a1.319 1.319 0 01-1.313-1.324c0-.73.589-1.323 1.313-1.323H3.5M16.188.624h4.375v10.589h-4.375z"/><path d="M18.156 2.83a.22.22 0 00.219-.22.22.22 0 00-.219-.22.22.22 0 00-.218.22c0 .121.098.22.218.22"/></g></svg>