<svg xmlns="http://www.w3.org/2000/svg" viewBox="0 0 22 22"><path fill="none" d="M11.636 11.844L9.802 9.498c.33.34.871.346 1.21.016a.857.857 0 00.015-1.211L8.613 5.387c.844.84 1.986-.327 1.146-1.273L7.104 1.285a.906.906 0 00-1.32 0L3.13 4.116c-.84.944.302 2.111 1.145 1.273L1.86 8.303a.858.858 0 00.016 1.211c.339.33.88.323 1.21-.016l-1.835 2.346a.858.858 0 00.603 1.464h9.178a.856.856 0 00.603-1.464zm9.562-1.738l-2.057-2.762c.719.797 1.577-.363.976-1.202l-2.058-2.77a.898.898 0 00-1.452 0l-2.053 2.77c-.6.835.258 2 .977 1.202l-2.058 2.762a.848.848 0 00.425 1.385h6.875a.847.847 0 00.425-1.385zM6.444 13.309v3.636m10.889-5.454v2.727M1 17.376a15.428 15.428 0 0113.566 3.203m-3.52-4.302A13.622 13.622 0 0121.87 14.71"/></svg>