<svg width="22" height="22" xmlns="http://www.w3.org/2000/svg"><g stroke="#000" fill="none" fill-rule="evenodd" stroke-linecap="round" stroke-linejoin="round"><path d="M8.8 10.534h4.333c.479 0 .867.388.867.866v8.667a.867.867 0 01-.867.867H8.8a.867.867 0 01-.867-.867V11.4c0-.478.389-.866.867-.866zM1.867 15.734h3.466c.479 0 .867.388.867.866v3.467a.867.867 0 01-.867.867H1.867A.867.867 0 011 20.067V16.6c0-.478.388-.866.867-.866zM16.6 18.334h3.467c.478 0 .866.388.866.866v.867a.867.867 0 01-.866.867H16.6a.867.867 0 01-.867-.867V19.2c0-.478.389-.866.867-.866zM12.267 3.6h1.665a.433.433 0 01.253.785L12.8 5.39l.854 1.964a.432.432 0 01-.606.55l-2.08-1.166-2.073 1.166a.434.434 0 01-.606-.55l.854-1.964-1.386-1.006a.433.433 0 01.248-.785h1.663l.896-2.322a.433.433 0 01.808 0l.896 2.322zM3.6 10.534a1.733 1.733 0 11.001 3.465 1.733 1.733 0 01-.001-3.465zM18.333 13.134a1.733 1.733 0 11.001 3.465 1.733 1.733 0 010-3.465z"/></g></svg>