<svg width="20" height="21" xmlns="http://www.w3.org/2000/svg"><g stroke="#000" stroke-width=".75" fill="none" fill-rule="evenodd" stroke-linecap="round" stroke-linejoin="round"><path d="M12.736 20.17v-2.5h.838a2.507 2.507 0 002.515-2.5v-2.5h2.358a.419.419 0 00.396-.544c-1.57-4.833-2.708-10.029-7.896-10.972-4.54-.875-8.934 2.075-9.814 6.589-.04.207-.073.415-.097.624a8.085 8.085 0 003.318 7.313v4.49"/><path d="M6.868 7.253c0-1.381 1.125-2.501 2.513-2.502a2.507 2.507 0 012.517 2.499 2.504 2.504 0 01-1.879 2.42.806.806 0 00-.636.767v1.4M9.383 13.503c.116 0 .21.093.21.208a.209.209 0 01-.21.209.209.209 0 01-.21-.209c0-.115.094-.208.21-.208"/></g></svg>