<svg xmlns="http://www.w3.org/2000/svg" viewBox="0 0 21 22"><g fill="none" fill-rule="evenodd" stroke-linecap="round" stroke-linejoin="round"><path d="M13.499 13.918h5.833c.46 0 .833.373.833.833v4.999c0 .46-.373.833-.833.833h-5.833a.834.834 0 01-.834-.833v-5c0-.46.374-.832.834-.832z"/><path d="M16.415 16.26a1.042 1.042 0 110 2.085 1.042 1.042 0 010-2.084zm2.084-3.593a2.083 2.083 0 10-4.167 0v1.25h4.167v-1.25zm-7.917-8.75a2.917 2.917 0 110 5.833 2.917 2.917 0 010-5.833zm0 1.666a1.25 1.25 0 11-1.25 1.25"/><path d="M17.869 9.21a19.155 19.155 0 002.193-2.103.418.418 0 000-.547c-.97-1.1-4.845-5.143-9.48-5.143-4.635 0-8.511 4.043-9.48 5.143a.418.418 0 000 .547c.969 1.1 4.845 5.143 9.48 5.143a8.615 8.615 0 002.148-.28"/></g></svg>