<svg xmlns="http://www.w3.org/2000/svg" viewBox="0 0 24 22"><g fill="none" fill-rule="evenodd" stroke-linecap="round" stroke-linejoin="round"><path d="M22.876 19.71c.187.232.128.555-.132.722a.634.634 0 01-.431.09H1.949c-.315.046-.613-.145-.665-.427a.474.474 0 01.102-.385l10.29-18.374c.25-.447.66-.447.91 0l10.29 18.374zM12.131 14.617V8.254"/><path d="M12.122 16.435c-.139.003-.249.105-.246.229v.003c.006.125.12.223.26.223h.004c.139-.003.249-.105.246-.228v-.004c-.006-.123-.118-.22-.255-.223h-.005"/></g></svg>