<svg width="20" height="20" xmlns="http://www.w3.org/2000/svg"><g stroke="#000" fill="none" fill-rule="evenodd" stroke-linecap="round" stroke-linejoin="round"><path d="M2.423 14.125h5.702M2.884 5.125h14.238M7.375 9.625H1.383M9.452 1.395c-4.5 4.875-4.418 11.218.082 17.218M10.547 1.395A12.094 12.094 0 0113.75 7.75M18.625 10A8.625 8.625 0 1010 18.625"/><path d="M15.974 13.306l1.643-1.644a.375.375 0 00-.163-.626L9.28 8.707a.375.375 0 00-.463.463l2.325 8.175a.375.375 0 00.627.163l1.537-1.537 2.387 2.386a.375.375 0 00.53 0l2.138-2.132a.375.375 0 000-.53l-2.386-2.389z"/></g></svg>