<svg width="21" height="19" xmlns="http://www.w3.org/2000/svg"><g fill="none" fill-rule="evenodd" stroke-linecap="round" stroke-linejoin="round"><path d="M17.5 12.817h0c.724 0 1.313.593 1.313 1.323s-.588 1.324-1.313 1.324h-.875c.724 0 1.313.593 1.313 1.323 0 .732-.588.883-1.313.883h-5.688c-2.494 0-3.062-.441-6.124-.883v-7.5c2.143 0 5.687-3.97 5.687-7.5 0-1.395 1.915-1.914 2.625.635.438 1.571-.875 4.66-.875 4.66h7c.724 0 1.313.592 1.313 1.323s-.588 1.765-1.313 1.765h-.875c.724 0 1.313.593 1.313 1.323s-.588 1.324-1.313 1.324H17.5M.438 7.964h4.375v10.588H.438z" stroke="#000" stroke-width=".75"/><path d="M2.844 16.346a.22.22 0 00-.219.22c0 .123.098.221.219.221a.22.22 0 00.219-.22.22.22 0 00-.22-.22" stroke="#000" stroke-width=".75"/></g></svg>