<svg xmlns="http://www.w3.org/2000/svg" viewBox="0 0 50 50"><path fill-rule="evenodd" d="M50 4.425A4.166 4.166 0 0045.833.258H4.167A4.166 4.166 0 000 4.425v30.208A4.166 4.166 0 004.167 38.8h7.291a2.084 2.084 0 000-4.167h-6.77a.521.521 0 01-.521-.52V13.926l9.502-9.502h31.643a.52.52 0 01.521.52v19.972a.52.52 0 01-.152.368l-8.243 8.244c-.294.292-.459.69-.459 1.104v2.084c0 1.15.934 2.083 2.084 2.083h6.77A4.166 4.166 0 0050 34.633V4.425zm-25 16.2c-5.71-.017-10.354 4.598-10.37 10.308a10.338 10.338 0 004.12 8.292v9.481a1.043 1.043 0 001.842.669l4.408-5.3 4.408 5.3a1.041 1.041 0 001.842-.68v-9.48c4.556-3.442 5.46-9.928 2.017-14.484A10.333 10.333 0 0025 20.625zm0 4.167a6.208 6.208 0 11.004 12.416 6.208 6.208 0 01-6.21-6.206v-.004A6.215 6.215 0 0125 24.792zm0 3.114a3.08 3.08 0 110 6.162 3.08 3.08 0 010-6.162zm5.208-16.71a1.563 1.563 0 000-3.125H19.792a1.563 1.563 0 000 3.125h10.416zm5.209 2.648H14.583a1.563 1.563 0 000 3.125h20.834a1.563 1.563 0 000-3.125z"/></svg>