<svg xmlns="http://www.w3.org/2000/svg" viewBox="0 0 55 55"><path d="M7.464 21.269L21.28 7.455a2.27 2.27 0 013.212 0l6.424 6.424a2.27 2.27 0 010 3.212L17.1 30.907a2.27 2.27 0 01-3.212 0l-6.424-6.424a2.272 2.272 0 010-3.214zm.06 7.73a1.135 1.135 0 00-1.464-.123l-4.84 3.458a3.41 3.41 0 000 4.82 3.41 3.41 0 004.82 0l3.455-4.839a1.135 1.135 0 00-.12-1.462l-1.852-1.854zM28.998 7.523a1.135 1.135 0 01-.123-1.463l3.458-4.84a3.41 3.41 0 014.82 0 3.41 3.41 0 010 4.82l-4.839 3.455a1.135 1.135 0 01-1.462-.12l-1.854-1.852zm24.745 7.403a3.408 3.408 0 01.002 4.818l-.002.003-8.033 8.03a1.137 1.137 0 01-1.606 0l-3.221-3.212a1.137 1.137 0 010-1.606l8.03-8.033a3.408 3.408 0 014.83 0zM41.19 30.72a1.704 1.704 0 000-2.41l-.802-.805a1.708 1.708 0 00-2.41 0l-2.002 2.001a1.137 1.137 0 01-1.17.273 13.557 13.557 0 00-8.141.336 24.07 24.07 0 00-9.384 5.239c-4.491 4.38-4.582 11.569-.202 16.062s11.57 4.582 16.062.202c.068-.066.137-.134.205-.204a24.045 24.045 0 005.238-9.382 13.54 13.54 0 00.336-8.141 1.137 1.137 0 01.273-1.172l1.997-2zm-20.697 7.846a19.836 19.836 0 017.483-4.103 16.722 16.722 0 012.078-.486.568.568 0 01.49.963L19.773 45.713a.573.573 0 01-.534.15.567.567 0 01-.41-.377 6.811 6.811 0 011.666-6.921zm13.739 2.153a19.774 19.774 0 01-4.09 7.483 6.978 6.978 0 01-6.87 1.63.566.566 0 01-.228-.944l10.713-10.729a.57.57 0 01.963.493c-.118.7-.28 1.39-.488 2.067z"/></svg>