<svg xmlns="http://www.w3.org/2000/svg" viewBox="0 0 50 50"><path d="M34.846 38.095a2.083 2.083 0 10-.348 4.151c2.644.194 5.27.559 7.867 1.09a.52.52 0 010 1.017A83.309 83.309 0 0125 45.833a83.387 83.387 0 01-17.36-1.48.52.52 0 010-1.017 61.623 61.623 0 017.783-1.083 2.082 2.082 0 00-.354-4.15C0 39.376 0 42.501 0 43.843 0 49.4 17.327 50 25 50c7.673 0 25-.6 25-6.158 0-1.341 0-4.466-15.154-5.747zM25 45c.71 0 1.37-.362 1.754-.96 4.08-6.38 13.567-21.948 13.567-28.718C40.32 6.86 33.46 0 24.998 0 16.535 0 9.675 6.86 9.675 15.322c0 6.77 9.488 22.34 13.569 28.718.381.6 1.044.965 1.756.96zm-7.292-30.414A7.291 7.291 0 0125 7.296a7.291 7.291 0 11-7.292 7.29z"/></svg>