<svg xmlns="http://www.w3.org/2000/svg" viewBox="0 0 50 52"><path d="M27.083 25.74h-4.166a1.56 1.56 0 00-1.563 1.558c0 .86.7 1.558 1.563 1.558h4.166a1.56 1.56 0 001.563-1.558c0-.86-.7-1.558-1.563-1.558zM25 6.01a1.56 1.56 0 001.563-1.558V2.375c0-.86-.7-1.558-1.563-1.558a1.56 1.56 0 00-1.563 1.558v2.077c0 .86.7 1.558 1.563 1.558zm-10.417 6.23h-2.5a1.56 1.56 0 00-1.562 1.558c0 .86.7 1.558 1.562 1.558h2.5a1.56 1.56 0 001.563-1.558c0-.86-.7-1.558-1.563-1.558zM37.5 15.356a1.56 1.56 0 001.563-1.558c0-.86-.7-1.558-1.563-1.558h-2.083a1.56 1.56 0 00-1.563 1.558c0 .86.7 1.558 1.563 1.558H37.5zM17.77 6.464l-2.082-2.076a1.567 1.567 0 00-2.21-.038 1.555 1.555 0 00-.036 2.204l.037.037 2.084 2.077c.6.619 1.59.636 2.21.037a1.555 1.555 0 00-.002-2.24zm18.75.127a1.55 1.55 0 00.04-2.201 1.564 1.564 0 00-2.245-.002L32.23 6.464a1.553 1.553 0 00-.04 2.202c.6.619 1.588.638 2.209.04l.038-.038 2.083-2.077zM25 7.048c-4.269.108-7.704 3.533-7.813 7.789a7.55 7.55 0 002.917 5.877.517.517 0 01.209.416v.984c0 .86.7 1.558 1.562 1.558h6.25a1.56 1.56 0 001.563-1.558v-.993c0-.164.077-.317.208-.415a7.55 7.55 0 002.916-5.878C32.7 10.575 29.267 7.154 25 7.048zm17.708 9.865c2.877 0 5.209 2.325 5.209 5.193 0 2.868-2.332 5.192-5.209 5.192S37.5 24.974 37.5 22.106c0-2.868 2.331-5.193 5.208-5.193zm0 11.424c-4.027 0-7.291 3.254-7.291 7.269v4.154a1.04 1.04 0 001.041 1.038h1.713c.267 0 .492.202.517.467l.895 8.981a1.04 1.04 0 001.042.937h4.167a1.04 1.04 0 001.041-.937l.902-8.98a.518.518 0 01.517-.468h1.706A1.04 1.04 0 0050 39.76v-4.154c0-4.015-3.265-7.27-7.292-7.27zM7.292 16.913c2.877 0 5.208 2.325 5.208 5.193 0 2.868-2.331 5.192-5.208 5.192-2.877 0-5.209-2.324-5.209-5.192 0-2.868 2.332-5.193 5.209-5.193zm0 11.424C3.265 28.337 0 31.59 0 35.606v4.154a1.04 1.04 0 001.042 1.038h1.712c.267 0 .492.202.517.467l.896 8.981a1.04 1.04 0 001.041.937h4.167a1.04 1.04 0 001.042-.937l.896-8.98a.518.518 0 01.516-.468h1.713a1.04 1.04 0 001.041-1.038v-4.154c0-4.015-3.264-7.27-7.291-7.27z"/></svg>