<svg xmlns="http://www.w3.org/2000/svg" viewBox="0 0 34 50"><path d="M31.681 15.994a3.126 3.126 0 00-3.206.154l-11.23 7.5c-.35.233-.805.233-1.155 0l-11.232-7.5A3.124 3.124 0 000 18.75v4.898c0 .362.19.7.5.89L16.054 34c.331.2.748.2 1.08 0l15.695-9.465c.313-.187.504-.525.504-.89V18.75a3.125 3.125 0 00-1.652-2.756zm1.121 14.06a1.044 1.044 0 00-1.052.019l-12.846 7.815a3.973 3.973 0 01-2.216.66c-.83 0-1.642-.246-2.332-.706l-12.773-7.77a1.04 1.04 0 00-1.583.89v6.875c0 1.046.523 2.021 1.392 2.6l13.541 9.03c1.05.7 2.417.7 3.467 0l13.542-9.03a3.123 3.123 0 001.391-2.591V30.97c.005-.38-.2-.731-.53-.917zM11.765 10.052c.306.302.395.763.223 1.158l-1.717 3.944a1.092 1.092 0 001.554 1.365l4.331-2.436a1.038 1.038 0 011.021 0l4.331 2.436a1.092 1.092 0 001.555-1.365l-1.717-3.944a1.041 1.041 0 01.223-1.158l3.106-3.058a1.022 1.022 0 00-.717-1.786h-3.504c-.406 0-.773-.235-.944-.604L17.648.598a1.105 1.105 0 00-1.963 0L13.81 4.61c-.17.367-.54.603-.943.603H9.375a1.02 1.02 0 00-.715 1.78l3.105 3.06z"/></svg>