<svg xmlns="http://www.w3.org/2000/svg" viewBox="0 0 48 48"><path d="M10.486.498a5 5 0 015 5 5 5 0 01-5 5 5 5 0 01-5-5 5 5 0 015-5zM47.986 26a2 2 0 00-2-2H29.97a.498.498 0 00-.5.51c.02.964-.254 1.91-.788 2.714a.5.5 0 00.416.776h3.388a.497.497 0 01.5.496V46a2 2 0 004 0V28.5a.5.5 0 01.5-.5h8.5a2 2 0 002-2zm-16-8a2 2 0 000 4h8.6a4 4 0 003.758-2.632l3.522-9.684a1.999 1.999 0 00-1.128-2.594 1.999 1.999 0 00-2.63 1.228l-3.4 9.354a.499.499 0 01-.472.328h-8.25zm2.5-7.102a2.5 2.5 0 010 5 2.5 2.5 0 010-5zM27.428 5.52a11.157 11.157 0 0114.118 0 1.499 1.499 0 001.882-2.336 14.144 14.144 0 00-17.882 0 1.499 1.499 0 001.882 2.336zM40.32 9.6a1.5 1.5 0 00-.226-2.108 8.866 8.866 0 00-11.214 0 1.5 1.5 0 101.854 2.358l.026-.022a5.88 5.88 0 017.45 0c.648.518 1.59.416 2.11-.228zM24.486 27.498a3.001 3.001 0 000-6h-4.342c-.266 0-.52-.106-.708-.292L12.6 14.378a3 3 0 00-5.122 2.12v13c.002.966.21 1.92.612 2.8a.5.5 0 01-.456.704h-.51a.499.499 0 01-.494-.422L3.986 15.686a1.999 1.999 0 10-3.97.482c.004.048.012.096.022.144l2.89 18.47a.481.481 0 010 .2l-2.8 10.492a2.001 2.001 0 003.858 1.05l2.43-9.154A.503.503 0 016.9 37h12.52c.2 0 .38.118.458.302.694 1.588 3.878 8.942 3.878 8.942a3.001 3.001 0 005.462-2.486L25.284 34.6a7.02 7.02 0 00-6.374-4.104h-4.424a1 1 0 01-1-1v-4.548a.5.5 0 01.854-.348l.854.854a6.946 6.946 0 004.95 2.05l4.342-.006z"/></svg>