<svg xmlns="http://www.w3.org/2000/svg" viewBox="0 0 52 52"><path d="M16.457 19.575c.26.02.503.132.684.317a9.843 9.843 0 003.369 2.172c1.23.529 1.23.529 1.23 1.806a5.057 5.057 0 01-3.09 5.186 3.626 3.626 0 00-1.901 1.82 1.065 1.065 0 00.967 1.513h16.568a1.065 1.065 0 00.967-1.512 3.603 3.603 0 00-1.9-1.819 5.058 5.058 0 01-3.092-5.188c0-1.277 0-1.277 1.231-1.806a9.869 9.869 0 003.37-2.17c.18-.187.423-.3.683-.32 9.36-.7 10.343-11.531 10.674-15.175A3.62 3.62 0 0042.61.444H9.39a3.62 3.62 0 00-3.606 3.957c.33 3.642 1.314 14.471 10.674 15.174zM38.74 5.22a.534.534 0 01.533-.517h2.042a.54.54 0 01.398.179c.1.112.15.264.13.415a14.216 14.216 0 01-3.037 8.429.532.532 0 01-.894-.49c.509-2.643.786-5.324.828-8.016zm-28.451-.338a.54.54 0 01.398-.18h2.042c.288 0 .524.229.533.516a46.69 46.69 0 00.826 8.018.532.532 0 01-.895.488 14.24 14.24 0 01-3.034-8.427.535.535 0 01.13-.415zm32.749 29.636H2.574a2.13 2.13 0 000 4.259h12.778a4.258 4.258 0 014.26 4.259 4.258 4.258 0 01-4.26 4.26H2.574a2.13 2.13 0 000 4.259h40.463a8.519 8.519 0 000-17.037z"/></svg>