<svg xmlns="http://www.w3.org/2000/svg" viewBox="0 0 50 50"><path d="M48.958 31.233h-4.166a1.042 1.042 0 01-1.042-1.041V29.15c0-.575.467-1.042 1.042-1.042h3.125a1.042 1.042 0 00.904-1.558l-2.617-4.583a.773.773 0 01.671-1.154 1.042 1.042 0 00.883-1.594l-5.208-8.334a1.081 1.081 0 00-1.767 0l-5.208 8.334a1.043 1.043 0 00.883 1.593.771.771 0 01.671 1.155l-2.616 4.583a1.04 1.04 0 00.904 1.558h3.125c.575 0 1.041.467 1.041 1.042v1.73c0 .474-.32.889-.78 1.008a30.428 30.428 0 00-11.143 5.864.52.52 0 00.157.898 26.402 26.402 0 0111.843 7.623c.623.75.965 1.694.965 2.669 0 .575.467 1.041 1.042 1.041h7.291c.575 0 1.042-.466 1.042-1.041V32.275c0-.575-.467-1.042-1.042-1.042zM17.615 39.71a1.043 1.043 0 01-.948-1.041V35.4c0-.575.466-1.042 1.041-1.042h6.334a2.084 2.084 0 001.706-3.279l-4.246-6.064a.682.682 0 01.558-1.073 2.083 2.083 0 001.759-3.202l-4.715-7.407a1.041 1.041 0 01.209-1.35c.772-.66.954-1.783.43-2.654L14.436.488a1.084 1.084 0 00-1.787 0l-5.302 8.84a2.082 2.082 0 00.431 2.653c.398.336.485.913.208 1.352l-4.723 7.409a2.083 2.083 0 001.76 3.2.68.68 0 01.56 1.073l-4.247 6.064a2.084 2.084 0 001.707 3.28h6.333c.575 0 1.042.466 1.042 1.041v3.613c0 .497-.354.927-.844 1.02a24.334 24.334 0 00-9.108 3.875c-.29.194-.465.52-.465.867v4.167c0 .575.467 1.041 1.042 1.041h35.416a1.043 1.043 0 00.8-1.71c-4.837-5.804-13.59-8.015-19.643-8.563z"/></svg>