<svg xmlns="http://www.w3.org/2000/svg" viewBox="0 0 58 42"><path d="M14.713 7.123l9.425 3.945c.302.13.642.13.945 0l10.034-4.417a.614.614 0 000-1.124L22.337.186a2.406 2.406 0 00-1.85 0l-5.772 2.422a2.454 2.454 0 000 4.515h-.002zm42.289-.663c-1.279-3.116-4.812-4.595-7.893-3.304h-.02L17.097 17.24a1.198 1.198 0 01-1.023-.029l-5.742-2.904a2.421 2.421 0 00-2.032-.059L2 16.978a2.457 2.457 0 00-.761 3.978l9.05 9.154a2.397 2.397 0 002.605.54l13.575-5.494a.6.6 0 01.785.332.61.61 0 01.005.447l-4.727 12.758c-.469 1.264.164 2.674 1.414 3.148a2.38 2.38 0 001.928-.102l6.55-3.313a2.42 2.42 0 001.087-1.095l9.06-18.333c.138-.276.372-.491.66-.599l10.5-3.957c3.081-1.291 4.546-4.865 3.27-7.982z"/></svg>