<?xml version="1.0" encoding="utf-8"?>
<svg xmlns="http://www.w3.org/2000/svg">
<symbol id="product-arts-crafts" viewBox="0 0 45 56"><path fill-rule="nonzero" d="M44.293 38.306c0-5.114-4.179-9.26-9.333-9.26h-1.167V27.89a2.325 2.325 0 00-2.333-2.315h-28a2.325 2.325 0 00-2.333 2.315v21.99c0 3.197 2.61 5.788 5.833 5.788h21c3.222 0 5.833-2.59 5.833-5.787v-2.315h1.167c5.154 0 9.333-4.146 9.333-9.26zm-9.333 4.63h-.583a.577.577 0 01-.584-.575V34.255a.577.577 0 01.579-.58h.588c2.578 0 4.667 2.073 4.667 4.63 0 2.558-2.089 4.63-4.667 4.63zM7.403 6.74a.574.574 0 00.04-.993l-5.52-3.542a1.172 1.172 0 00-1.601.398 1.156 1.156 0 00-.15.785l.985 5.856a.583.583 0 00.854.412l5.392-2.916zM2.73 11.903a.576.576 0 00-.234.773l5.18 9.954c.2.384.602.625 1.039.625h7c.644 0 1.166-.519 1.166-1.158 0-.194-.049-.386-.144-.558L9.676 8.808a.59.59 0 00-.791-.232L2.73 11.903zm23.083 5.09h-.016a8.199 8.199 0 01-1.484-.806.59.59 0 00-.817.156c-.01.013-.016.027-.025.039l-2.898 5.157a1.154 1.154 0 00.452 1.574c.173.095.369.146.567.146h4.275c.485 0 .92-.296 1.092-.747l1.563-4.13a.58.58 0 00-.466-.78 8.288 8.288 0 01-2.243-.609zM33.93 6.627C33.205 3.382 30.646.852 27.372.146a1.167 1.167 0 00-1.41.85c-.076.312-.018.643.16.911 1.234 1.864.49 2.968-.824 4.616a8.419 8.419 0 00-1.265 1.896c-1.118 2.356-.098 5.164 2.277 6.273.133.063.27.118.409.17 1.708.863 3.77.629 5.238-.596a7.744 7.744 0 001.972-7.639z"/>
</symbol>
<symbol id="product-career-interests" viewBox="0 0 50 55"><path fill-rule="nonzero" d="M49.912 8.654c-.178-.425-.591-.7-1.05-.7h-6.25a.564.564 0 01-.568-.564V1.136a1.137 1.137 0 00-1.939-.804L34.62 5.818a5.638 5.638 0 00-1.665 4.018v3.827a.57.57 0 01-.266.482 1.062 1.062 0 00-.205.156L21.12 25.664a2.275 2.275 0 00-.056 3.214 2.275 2.275 0 003.213.056c.018-.018.039-.036.057-.056l11.363-11.363c.061-.062.113-.13.159-.205a.574.574 0 01.482-.266h3.824a5.638 5.638 0 004.018-1.665l5.486-5.486c.325-.325.423-.814.246-1.239zm-27.185 9.527a2.273 2.273 0 000-4.546c-7.531 0-13.635 6.105-13.635 13.636 0 7.531 6.104 13.635 13.635 13.635s13.636-6.104 13.636-13.635a2.273 2.273 0 00-4.546 0 9.09 9.09 0 11-9.09-9.09zm22.726 9.09a2.273 2.273 0 00-4.545 0c0 10.04-8.14 18.18-18.18 18.18-10.041 0-18.182-8.14-18.182-18.18s8.14-18.18 18.181-18.18a2.273 2.273 0 000-4.546C10.187 4.534.013 14.688 0 27.228a22.706 22.706 0 006.454 15.878.569.569 0 01.025.766L.55 50.792a2.273 2.273 0 003.452 2.954l6.05-7.056a.565.565 0 01.73-.114 22.591 22.591 0 0023.893 0c.239-.147.55-.1.732.114l6.05 7.056a2.272 2.272 0 003.451-2.954l-5.929-6.92a.566.566 0 01.023-.763 22.639 22.639 0 006.452-15.838z"/>
</symbol>
<symbol id="product-certification" viewBox="0 0 50 50"><path fill-rule="evenodd" d="M50 4.425A4.166 4.166 0 0045.833.258H4.167A4.166 4.166 0 000 4.425v30.208A4.166 4.166 0 004.167 38.8h7.291a2.084 2.084 0 000-4.167h-6.77a.521.521 0 01-.521-.52V13.926l9.502-9.502h31.643c.288 0 .521.233.521.52v19.972c0 .137-.054.27-.152.368l-8.243 8.244c-.294.292-.459.69-.459 1.104v2.084c0 1.15.934 2.083 2.084 2.083h6.77A4.166 4.166 0 0050 34.633V4.425zm-25 16.2c-5.71-.017-10.354 4.598-10.37 10.308a10.338 10.338 0 004.12 8.292v9.481a1.043 1.043 0 001.842.669l4.408-5.3 4.408 5.3a1.041 1.041 0 001.842-.68v-9.48c4.556-3.442 5.46-9.928 2.017-14.484A10.333 10.333 0 0025 20.625zm0 4.167a6.208 6.208 0 11.004 12.416 6.208 6.208 0 01-6.21-6.206v-.004A6.215 6.215 0 0125 24.792zm0 3.114a3.08 3.08 0 110 6.162 3.08 3.08 0 010-6.162zm5.208-16.71a1.563 1.563 0 000-3.125H19.792a1.563 1.563 0 000 3.125h10.416zm5.209 2.648H14.583a1.563 1.563 0 000 3.125h20.834a1.563 1.563 0 000-3.125z"/>
</symbol>
<symbol id="product-college" viewBox="0 0 68 46"><path fill-rule="nonzero" d="M50.473 27.089l-14.07 4.656a5.957 5.957 0 01-3.657 0L18.67 27.09a2.545 2.545 0 00-2.315.347 2.546 2.546 0 00-1.07 2.076v5.576a5.894 5.894 0 003.95 5.545l12.25 4.299a9.393 9.393 0 006.172 0l12.26-4.304a5.895 5.895 0 003.945-5.54v-5.576c0-.823-.396-1.595-1.07-2.076a2.54 2.54 0 00-2.319-.347zM67.23 13.003c0-1.1-.71-2.075-1.76-2.423L35.385.613a2.598 2.598 0 00-1.625 0L3.673 10.58A4.428 4.428 0 00.63 14.776v14.822c0 2.116 1.728 3.834 3.857 3.834 2.129 0 3.857-1.718 3.857-3.834v-10.85c0-.71.581-1.283 1.296-1.278.134 0 .267.02.396.061l23.724 7.861c.524.179 1.1.179 1.625 0l30.086-9.967a2.557 2.557 0 001.759-2.422z"/>
</symbol>
<symbol id="product-colleges" viewBox="0 0 50 50"><path fill-rule="nonzero" d="M47.917 27.083H36.458a1.042 1.042 0 01-1.041-1.041v-3.125a10.436 10.436 0 00-7.575-10.023 1.042 1.042 0 01-.759-1.002v-1.475c0-.575.467-1.042 1.042-1.042h4.694a2.608 2.608 0 002.598-2.604V2.604A2.608 2.608 0 0032.819 0h-8.334a1.563 1.563 0 00-1.568 1.556v10.336c0 .464-.309.875-.757 1.002a10.435 10.435 0 00-7.577 10.023v3.125c0 .575-.466 1.041-1.041 1.041H2.083A2.111 2.111 0 000 29.167v18.75C0 49.066.933 50 2.083 50h19.792c.575 0 1.042-.467 1.042-1.042v-9.375a2.084 2.084 0 014.166 0v9.375c0 .575.467 1.042 1.042 1.042h19.792c1.137.012 2.07-.9 2.083-2.038V29.166c0-1.15-.933-2.083-2.083-2.083zM11.985 43.75c0 .575-.466 1.041-1.041 1.041H6.777a1.042 1.042 0 01-1.042-1.041v-2.084c0-.575.467-1.041 1.042-1.041h4.167c.575 0 1.041.466 1.041 1.041v2.084zm0-8.334c0 .575-.466 1.042-1.041 1.042H6.777a1.042 1.042 0 01-1.042-1.042v-2.083c0-.575.467-1.041 1.042-1.041h4.167c.575 0 1.041.466 1.041 1.041v2.083zM25 26.042a3.126 3.126 0 010-6.25 3.126 3.126 0 010 6.25zM45.313 43.75c0 .575-.467 1.041-1.042 1.041h-4.167a1.042 1.042 0 01-1.041-1.041v-2.084c0-.575.466-1.041 1.041-1.041h4.167c.575 0 1.041.466 1.041 1.041v2.084zm0-8.334c0 .575-.467 1.042-1.042 1.042h-4.167a1.042 1.042 0 01-1.041-1.042v-2.083c0-.575.466-1.041 1.041-1.041h4.167c.575 0 1.041.466 1.041 1.041v2.083z"/>
</symbol>
<symbol id="product-cooking-baking" viewBox="0 0 55 55"><path fill-rule="nonzero" d="M7.464 21.269L21.28 7.455a2.27 2.27 0 013.212 0l6.424 6.424a2.27 2.27 0 010 3.212L17.1 30.907a2.27 2.27 0 01-3.212 0l-6.424-6.424a2.272 2.272 0 010-3.214zm.06 7.73a1.135 1.135 0 00-1.464-.123l-4.84 3.458a3.41 3.41 0 000 4.82 3.41 3.41 0 004.82 0l3.455-4.839a1.135 1.135 0 00-.12-1.462l-1.852-1.854zM28.998 7.523a1.135 1.135 0 01-.123-1.463l3.458-4.84a3.41 3.41 0 014.82 0 3.41 3.41 0 010 4.82l-4.839 3.455a1.135 1.135 0 01-1.462-.12l-1.854-1.852zm24.745 7.403a3.408 3.408 0 01.002 4.818l-.002.003-8.033 8.03a1.137 1.137 0 01-1.606 0l-3.221-3.212a1.137 1.137 0 010-1.606l8.03-8.033a3.408 3.408 0 014.83 0zM41.19 30.72a1.704 1.704 0 000-2.41l-.802-.805a1.708 1.708 0 00-2.41 0l-2.002 2.001a1.137 1.137 0 01-1.17.273 13.557 13.557 0 00-8.141.336 24.07 24.07 0 00-9.384 5.239c-4.491 4.38-4.582 11.569-.202 16.062s11.57 4.582 16.062.202c.068-.066.137-.134.205-.204a24.045 24.045 0 005.238-9.382 13.54 13.54 0 00.336-8.141 1.137 1.137 0 01.273-1.172l1.997-2zm-20.697 7.846a19.836 19.836 0 017.483-4.103 16.722 16.722 0 012.078-.486.568.568 0 01.49.963L19.773 45.713a.573.573 0 01-.534.15.567.567 0 01-.41-.377 6.811 6.811 0 011.666-6.921zm13.739 2.153a19.774 19.774 0 01-4.09 7.483 6.978 6.978 0 01-6.87 1.63.566.566 0 01-.228-.944l10.713-10.729a.57.57 0 01.963.493c-.118.7-.28 1.39-.488 2.067z"/>
</symbol>
<symbol id="product-demographics" viewBox="0 0 50 50"><path fill-rule="nonzero" d="M34.846 38.095a2.083 2.083 0 10-.348 4.151c2.644.194 5.27.559 7.867 1.09a.52.52 0 010 1.017A83.309 83.309 0 0125 45.833a83.387 83.387 0 01-17.36-1.48.52.52 0 010-1.017 61.623 61.623 0 017.783-1.083 2.082 2.082 0 00-.354-4.15C0 39.376 0 42.501 0 43.843 0 49.4 17.327 50 25 50c7.673 0 25-.6 25-6.158 0-1.341 0-4.466-15.154-5.747zM25 45c.71 0 1.37-.362 1.754-.96 4.08-6.38 13.567-21.948 13.567-28.718C40.32 6.86 33.46 0 24.998 0 16.535 0 9.675 6.86 9.675 15.322c0 6.77 9.488 22.34 13.569 28.718.381.6 1.044.965 1.756.96zm-7.292-30.414A7.291 7.291 0 0125 7.296a7.291 7.291 0 11-7.292 7.29z"/>
</symbol>
<symbol id="product-desk" viewBox="0 0 50 50"><path fill-rule="nonzero" d="M48.958 43.75H34.375c-.575 0-1.042.467-1.042 1.042v2.083c0 1.725 1.4 3.125 3.125 3.125h10.417C48.6 50 50 48.6 50 46.875v-2.083c0-.575-.467-1.042-1.042-1.042zm-2.083-19.792H24.479a.517.517 0 01-.52-.516v-2.088c0-.287.233-.52.52-.52h8.854a4.166 4.166 0 004.167-4.167v-12.5A4.166 4.166 0 0033.333 0H10.417A4.166 4.166 0 006.25 4.167v12.5a4.166 4.166 0 004.167 4.166h8.854c.287 0 .52.234.52.521v2.084a.517.517 0 01-.516.52H3.125A3.126 3.126 0 000 27.083v20.834a2.084 2.084 0 004.167 0V32.292c0-.575.466-1.042 1.041-1.042h43.75c.575 0 1.042-.467 1.042-1.042v-3.125c0-1.725-1.4-3.125-3.125-3.125zM10.417 4.167h22.916v12.5H10.417v-12.5zm23.958 30.206h14.583c.575 0 1.042.467 1.042 1.042v4.166c0 .575-.467 1.042-1.042 1.042H34.375a1.042 1.042 0 01-1.042-1.042v-4.166c0-.575.467-1.042 1.042-1.042z"/>
</symbol>
<symbol id="product-indoor" viewBox="0 0 50 52"><path fill-rule="nonzero" d="M27.083 25.74h-4.166a1.56 1.56 0 00-1.563 1.558c0 .86.7 1.558 1.563 1.558h4.166a1.56 1.56 0 001.563-1.558c0-.86-.7-1.558-1.563-1.558zM25 6.01a1.56 1.56 0 001.563-1.558V2.375c0-.86-.7-1.558-1.563-1.558a1.56 1.56 0 00-1.563 1.558v2.077c0 .86.7 1.558 1.563 1.558zm-10.417 6.23h-2.5a1.56 1.56 0 00-1.562 1.558c0 .86.7 1.558 1.562 1.558h2.5a1.56 1.56 0 001.563-1.558c0-.86-.7-1.558-1.563-1.558zM37.5 15.356a1.56 1.56 0 001.563-1.558c0-.86-.7-1.558-1.563-1.558h-2.083a1.56 1.56 0 00-1.563 1.558c0 .86.7 1.558 1.563 1.558H37.5zM17.77 6.464l-2.082-2.076a1.567 1.567 0 00-2.21-.038 1.555 1.555 0 00-.036 2.204l.037.037 2.084 2.077c.6.619 1.59.636 2.21.037a1.555 1.555 0 00-.002-2.24zm18.75.127c.622-.598.64-1.582.04-2.201a1.564 1.564 0 00-2.245-.002L32.23 6.464a1.553 1.553 0 00-.04 2.202c.6.619 1.588.638 2.209.04l.038-.038 2.083-2.077zM25 7.048c-4.269.108-7.704 3.533-7.813 7.789a7.55 7.55 0 002.917 5.877.517.517 0 01.209.416v.984c0 .86.7 1.558 1.562 1.558h6.25a1.56 1.56 0 001.563-1.558v-.993c0-.164.077-.317.208-.415a7.55 7.55 0 002.916-5.878C32.7 10.575 29.267 7.154 25 7.048zm17.708 9.865c2.877 0 5.209 2.325 5.209 5.193 0 2.868-2.332 5.192-5.209 5.192S37.5 24.974 37.5 22.106c0-2.868 2.331-5.193 5.208-5.193zm0 11.424c-4.027 0-7.291 3.254-7.291 7.269v4.154a1.04 1.04 0 001.041 1.038h1.713c.267 0 .492.202.517.467l.895 8.981a1.04 1.04 0 001.042.937h4.167a1.04 1.04 0 001.041-.937l.902-8.98a.518.518 0 01.517-.468h1.706A1.04 1.04 0 0050 39.76v-4.154c0-4.015-3.265-7.27-7.292-7.27zM7.292 16.913c2.877 0 5.208 2.325 5.208 5.193 0 2.868-2.331 5.192-5.208 5.192-2.877 0-5.209-2.324-5.209-5.192 0-2.868 2.332-5.193 5.209-5.193zm0 11.424C3.265 28.337 0 31.59 0 35.606v4.154a1.04 1.04 0 001.042 1.038h1.712c.267 0 .492.202.517.467l.896 8.981a1.04 1.04 0 001.041.937h4.167a1.04 1.04 0 001.042-.937l.896-8.98a.518.518 0 01.516-.468h1.713a1.04 1.04 0 001.041-1.038v-4.154c0-4.015-3.264-7.27-7.291-7.27z"/>
</symbol>
<symbol id="product-location" viewBox="0 0 50 51"><path fill-rule="nonzero" d="M50 25.292c0-.921-.604-1.732-1.485-1.996L33.93 18.92a2.083 2.083 0 00-2.593 1.398 1.996 1.996 0 00-.055.598.033.033 0 00-.033.033v20.446c0 .477-.325.894-.788 1.01l-10.416 2.609a1.042 1.042 0 01-1.296-1.01V25.118a.037.037 0 00-.035-.036 2.06 2.06 0 00-1.475-2.004L2.656 18.913A2.08 2.08 0 000 20.917v22.708c0 .92.604 1.731 1.485 1.996l14.584 4.375c.35.098.719.108 1.075.031l15.869-3.975a1.03 1.03 0 01.54 0l13.79 3.94A2.08 2.08 0 0050 48V25.292zM4.167 25.06a1.042 1.042 0 011.327-1.002l8.333 2.38c.448.127.756.537.756 1.002V43.8a1.042 1.042 0 01-1.341.998l-8.334-2.5a1.04 1.04 0 01-.741-.994V25.06zm41.666 18.796a1.042 1.042 0 01-1.327 1.002l-8.333-2.38a1.042 1.042 0 01-.756-1.003v-16.36a1.042 1.042 0 011.341-.998l8.334 2.5c.44.133.741.537.741.998v16.241zM22.917 14.327v21.694a2.084 2.084 0 004.166 0V14.327A7.293 7.293 0 0022.917.352a7.292 7.292 0 000 13.975z"/>
</symbol>
<symbol id="product-manufacturing" viewBox="0 0 50 40"><path fill-rule="nonzero" d="M47.708 24.486c-.36-8.47-5.329-16.049-12.916-19.707a1.036 1.036 0 00-1.39.492c-.06.123-.094.26-.102.397l-.648 11.97c-.12 2.12-1.862 3.78-3.97 3.78h-7.065c-2.109 0-3.852-1.657-3.973-3.78L16.99 5.543a1.043 1.043 0 00-1.477-.897C7.764 8.237 2.66 15.897 2.291 24.486A3.437 3.437 0 000 27.732v2.291c.002 1.897 1.527 3.434 3.408 3.436h4.615l.694 3.055a3.398 3.398 0 003.323 2.672h25.92a3.398 3.398 0 003.323-2.672l.694-3.055h4.615c1.88-.002 3.406-1.54 3.408-3.436v-2.29c0-1.465-.92-2.767-2.292-3.247zm-14.754 2.673a1.71 1.71 0 011.704 1.718 1.71 1.71 0 01-1.704 1.718H17.046a1.713 1.713 0 01-1.706-1.716c0-.95.762-1.718 1.702-1.72h15.912zm-11.912-9.704a.565.565 0 00.566.54h7.06a.565.565 0 00.567-.54l.867-16.019a.581.581 0 00-.15-.441.562.562 0 00-.417-.18h-8.787a.568.568 0 00-.569.6l.863 16.04z"/>
</symbol>
<symbol id="product-military" viewBox="0 0 34 50"><path fill-rule="nonzero" d="M31.681 15.994a3.126 3.126 0 00-3.206.154l-11.23 7.5c-.35.233-.805.233-1.155 0l-11.232-7.5A3.124 3.124 0 000 18.75v4.898c0 .362.19.7.5.89L16.054 34c.331.2.748.2 1.08 0l15.695-9.465c.313-.187.504-.525.504-.89V18.75a3.125 3.125 0 00-1.652-2.756zm1.121 14.06a1.044 1.044 0 00-1.052.019l-12.846 7.815a3.973 3.973 0 01-2.216.66c-.83 0-1.642-.246-2.332-.706l-12.773-7.77a1.04 1.04 0 00-1.583.89v6.875c0 1.046.523 2.021 1.392 2.6l13.541 9.03c1.05.7 2.417.7 3.467 0l13.542-9.03a3.123 3.123 0 001.391-2.591V30.97c.005-.38-.2-.731-.53-.917zM11.765 10.052c.306.302.395.763.223 1.158l-1.717 3.944a1.092 1.092 0 001.554 1.365l4.331-2.436c.317-.179.704-.179 1.021 0l4.331 2.436a1.092 1.092 0 001.555-1.365l-1.717-3.944a1.041 1.041 0 01.223-1.158l3.106-3.058a1.022 1.022 0 00-.717-1.786h-3.504c-.406 0-.773-.235-.944-.604L17.648.598a1.105 1.105 0 00-1.963 0L13.81 4.61c-.17.367-.54.603-.943.603H9.375a1.02 1.02 0 00-.715 1.78l3.105 3.06z"/>
</symbol>
<symbol id="product-music" viewBox="0 0 52 52"><path fill-rule="nonzero" d="M2.574 7.898a2.13 2.13 0 000 4.26H19.08a.533.533 0 00.532-.533V8.431a.533.533 0 00-.532-.533H2.574zm46.852 4.26a2.13 2.13 0 000-4.26H39.204a.531.531 0 00-.528.464 12.097 12.097 0 01-.803 3.063.538.538 0 00.05.498c.1.147.267.234.444.234h11.059zm-36.691 7.285a.534.534 0 00-.388-.897H2.574a2.13 2.13 0 000 4.26h7.507c.198 0 .381-.111.473-.286a13.924 13.924 0 012.18-3.077zm17.524.715c0 .205.12.392.305.482a10.63 10.63 0 012.88 2.014c.1.096.233.152.372.152h15.61a2.13 2.13 0 000-4.26H31.439a.538.538 0 00-.32.107l-.638.49a.546.546 0 00-.213.426l-.009.59zM2.574 29.194a2.13 2.13 0 000 4.26h6.389a.533.533 0 00.513-.675 13.937 13.937 0 01-.498-3.078.531.531 0 00-.53-.507H2.574zm33.816 3.62a.533.533 0 00.522.64h12.514a2.13 2.13 0 000-4.26H37.168a.534.534 0 00-.532.558c0 .169.012.337.012.507 0 .858-.087 1.715-.258 2.556zM30.26 43.57c0 .294.238.533.532.533h18.634a2.13 2.13 0 000-4.26H32.51a.528.528 0 00-.345.128 13.22 13.22 0 01-1.65 1.201.533.533 0 00-.256.454v1.944zm-18.586-2.951a.532.532 0 00-.475-.775H2.574a2.13 2.13 0 000 4.259h7.986a.533.533 0 00.533-.533v-.532a5.283 5.283 0 01.581-2.42zm15.817-17.663a.53.53 0 01-.426-.52v-4.46a.546.546 0 01.213-.425l5.085-3.834a8.924 8.924 0 003.22-6.883 6.389 6.389 0 10-12.777 0v8.495a.53.53 0 01-.213.426l-6.528 4.922-.021.017c-4.592 3.835-5.203 10.665-1.367 15.257a10.832 10.832 0 007.63 3.865.532.532 0 01.499.532v4.82a2.13 2.13 0 01-4.26 0v-2.13a2.13 2.13 0 00-4.259 0v2.13a6.388 6.388 0 1012.778 0v-5.503c0-.218.134-.416.336-.494a9.601 9.601 0 006.053-8.91 7.465 7.465 0 00-5.963-7.305zm-.426-16.122a2.13 2.13 0 014.26 0 4.641 4.641 0 01-1.609 3.542l-1.8 1.356a.534.534 0 01-.851-.425V6.833zm-4.26 28.175c0 .296-.24.535-.534.535-.021 0-.04-.002-.062-.004a6.577 6.577 0 01-3.507-11.513l3.252-2.456a.534.534 0 01.852.426v1.201a.533.533 0 01-.284.471 7.454 7.454 0 00-3.976 6.591 2.13 2.13 0 003.559 1.578.579.579 0 01.392-.15c.17 0 .309.138.309.308v3.013zm5.205-1.405a.534.534 0 01-.945-.337V28.13a.533.533 0 01.852-.426 3.192 3.192 0 011.277 2.555 5.294 5.294 0 01-1.184 3.344z"/>
</symbol>
<symbol id="product-open-office" viewBox="0 0 48 48"><path fill-rule="nonzero" d="M10.486.498a5 5 0 015 5 5 5 0 01-5 5 5 5 0 01-5-5 5 5 0 015-5zM47.986 26a2 2 0 00-2-2H29.97a.498.498 0 00-.5.51c.02.964-.254 1.91-.788 2.714a.5.5 0 00.416.776h3.388a.497.497 0 01.5.496V46a2 2 0 004 0V28.5a.5.5 0 01.5-.5h8.5a2 2 0 002-2zm-16-8a2 2 0 000 4h8.6a4 4 0 003.758-2.632l3.522-9.684a1.999 1.999 0 00-1.128-2.594 1.999 1.999 0 00-2.63 1.228l-3.4 9.354a.499.499 0 01-.472.328h-8.25zm2.5-7.102a2.5 2.5 0 010 5 2.5 2.5 0 010-5zM27.428 5.52a11.157 11.157 0 0114.118 0 1.499 1.499 0 001.882-2.336 14.144 14.144 0 00-17.882 0 1.499 1.499 0 001.882 2.336zM40.32 9.6a1.5 1.5 0 00-.226-2.108 8.866 8.866 0 00-11.214 0 1.5 1.5 0 101.854 2.358l.026-.022a5.88 5.88 0 017.45 0c.648.518 1.59.416 2.11-.228zM24.486 27.498a3.001 3.001 0 000-6h-4.342c-.266 0-.52-.106-.708-.292L12.6 14.378a3 3 0 00-5.122 2.12v13c.002.966.21 1.92.612 2.8a.5.5 0 01-.456.704h-.51a.499.499 0 01-.494-.422L3.986 15.686a1.999 1.999 0 10-3.97.482c.004.048.012.096.022.144l2.89 18.47a.481.481 0 010 .2l-2.8 10.492a2.001 2.001 0 003.858 1.05l2.43-9.154A.503.503 0 016.9 37h12.52c.2 0 .38.118.458.302.694 1.588 3.878 8.942 3.878 8.942a3.001 3.001 0 005.462-2.486L25.284 34.6a7.02 7.02 0 00-6.374-4.104h-4.424a1 1 0 01-1-1v-4.548a.5.5 0 01.854-.348l.854.854a6.946 6.946 0 004.95 2.05l4.342-.006z"/>
</symbol>
<symbol id="product-organizations-clubs" viewBox="0 0 52 52"><path fill-rule="nonzero" d="M16.457 19.575c.26.02.503.132.684.317a9.843 9.843 0 003.369 2.172c1.23.529 1.23.529 1.23 1.806a5.057 5.057 0 01-3.09 5.186 3.626 3.626 0 00-1.901 1.82 1.065 1.065 0 00.967 1.513h16.568a1.065 1.065 0 00.967-1.512 3.603 3.603 0 00-1.9-1.819 5.058 5.058 0 01-3.092-5.188c0-1.277 0-1.277 1.231-1.806a9.869 9.869 0 003.37-2.17c.18-.187.423-.3.683-.32 9.36-.7 10.343-11.531 10.674-15.175A3.62 3.62 0 0042.61.444H9.39a3.62 3.62 0 00-3.606 3.957c.33 3.642 1.314 14.471 10.674 15.174zM38.74 5.22a.534.534 0 01.533-.517h2.042a.54.54 0 01.398.179c.1.112.15.264.13.415a14.216 14.216 0 01-3.037 8.429.532.532 0 01-.894-.49c.509-2.643.786-5.324.828-8.016zm-28.451-.338a.54.54 0 01.398-.18h2.042c.288 0 .524.229.533.516a46.69 46.69 0 00.826 8.018.532.532 0 01-.895.488 14.24 14.24 0 01-3.034-8.427.535.535 0 01.13-.415zm32.749 29.636H2.574a2.13 2.13 0 000 4.259h12.778a4.258 4.258 0 014.26 4.259 4.258 4.258 0 01-4.26 4.26H2.574a2.13 2.13 0 000 4.259h40.463a8.519 8.519 0 000-17.037z"/>
</symbol>
<symbol id="product-outdoor" viewBox="0 0 50 50"><path fill-rule="nonzero" d="M48.958 31.233h-4.166a1.042 1.042 0 01-1.042-1.041V29.15c0-.575.467-1.042 1.042-1.042h3.125a1.042 1.042 0 00.904-1.558l-2.617-4.583a.773.773 0 01.671-1.154 1.042 1.042 0 00.883-1.594l-5.208-8.334a1.081 1.081 0 00-1.767 0l-5.208 8.334a1.043 1.043 0 00.883 1.593.771.771 0 01.671 1.155l-2.616 4.583a1.04 1.04 0 00.904 1.558h3.125c.575 0 1.041.467 1.041 1.042v1.73c0 .474-.32.889-.78 1.008a30.428 30.428 0 00-11.143 5.864.52.52 0 00.157.898 26.402 26.402 0 0111.843 7.623c.623.75.965 1.694.965 2.669 0 .575.467 1.041 1.042 1.041h7.291c.575 0 1.042-.466 1.042-1.041V32.275c0-.575-.467-1.042-1.042-1.042zM17.615 39.71a1.043 1.043 0 01-.948-1.041V35.4c0-.575.466-1.042 1.041-1.042h6.334a2.084 2.084 0 001.706-3.279l-4.246-6.064a.682.682 0 01.558-1.073 2.083 2.083 0 001.759-3.202l-4.715-7.407a1.041 1.041 0 01.209-1.35c.772-.66.954-1.783.43-2.654L14.436.488a1.084 1.084 0 00-1.787 0l-5.302 8.84a2.082 2.082 0 00.431 2.653c.398.336.485.913.208 1.352l-4.723 7.409a2.083 2.083 0 001.76 3.2.68.68 0 01.56 1.073l-4.247 6.064a2.084 2.084 0 001.707 3.28h6.333c.575 0 1.042.466 1.042 1.041v3.613c0 .497-.354.927-.844 1.02a24.334 24.334 0 00-9.108 3.875c-.29.194-.465.52-.465.867v4.167c0 .575.467 1.041 1.042 1.041h35.416a1.043 1.043 0 00.8-1.71c-4.837-5.804-13.59-8.015-19.643-8.563z"/>
</symbol>
<symbol id="product-private-office" viewBox="0 0 50 42"><path fill-rule="nonzero" d="M50 2.1c0-.87-.7-1.575-1.563-1.575H1.563A1.57 1.57 0 000 2.1c0 .87.7 1.575 1.563 1.575h1.562c.575 0 1.042.47 1.042 1.05v35.7c0 .58.466 1.05 1.041 1.05H18.75c.575 0 1.042-.47 1.042-1.05v-5.25c0-2.9 2.33-5.25 5.208-5.25 2.877 0 5.208 2.35 5.208 5.25v5.25c0 .58.467 1.05 1.042 1.05h13.542c.575 0 1.041-.47 1.041-1.05v-35.7c0-.58.467-1.05 1.042-1.05h1.563A1.57 1.57 0 0050 2.1zM19.27 25.725h-8.332a1.57 1.57 0 01-1.563-1.575c0-.87.7-1.575 1.563-1.575h8.333a1.57 1.57 0 011.562 1.575c0 .87-.7 1.575-1.562 1.575zm0-8.4h-8.332a1.57 1.57 0 01-1.563-1.575c0-.87.7-1.575 1.563-1.575h8.333a1.57 1.57 0 011.562 1.575c0 .87-.7 1.575-1.562 1.575zm0-8.4h-8.332A1.57 1.57 0 019.374 7.35c0-.87.7-1.575 1.563-1.575h8.333a1.57 1.57 0 011.562 1.575c0 .87-.7 1.575-1.562 1.575zm19.793 16.8h-8.334a1.57 1.57 0 01-1.562-1.575c0-.87.7-1.575 1.562-1.575h8.334a1.57 1.57 0 011.562 1.575c0 .87-.7 1.575-1.563 1.575zm0-8.4h-8.334a1.57 1.57 0 01-1.562-1.575c0-.87.7-1.575 1.562-1.575h8.334a1.57 1.57 0 011.562 1.575c0 .87-.7 1.575-1.563 1.575zm1.562-9.975c0 .87-.7 1.575-1.563 1.575H30.73a1.57 1.57 0 01-1.562-1.575c0-.87.7-1.575 1.562-1.575h8.334a1.57 1.57 0 011.562 1.575z"/>
</symbol>
<symbol id="product-profile" viewBox="0 0 44 52"><path fill-rule="nonzero" d="M22 0c7.035 0 12.737 5.69 12.737 12.711S29.035 25.422 22 25.422s-12.737-5.69-12.737-12.71C9.263 5.69 14.965 0 22 0zm0 28.889C9.856 28.903.014 38.725 0 50.844 0 51.482.519 52 1.158 52h41.684c.64 0 1.158-.518 1.158-1.156-.014-12.119-9.856-21.941-22-21.955z"/>
</symbol>
<symbol id="product-remote" viewBox="0 0 48 48"><path fill-rule="nonzero" d="M32.698 24.358a2.065 2.065 0 00-1.967-3.423l-2.27.525a1.535 1.535 0 01-1.813-1.041l-.681-2.252a2.053 2.053 0 00-3.934 0l-.68 2.241a1.535 1.535 0 01-1.813 1.042l-2.271-.525a2.063 2.063 0 00-1.967 3.423l1.59 1.735a1.55 1.55 0 010 2.102l-1.59 1.715a2.065 2.065 0 001.967 3.423l2.27-.527c.788-.181 1.58.279 1.813 1.052l.681 2.24a2.053 2.053 0 003.934 0l.68-2.24a1.534 1.534 0 011.813-1.052l2.271.527a2.066 2.066 0 001.967-3.423l-1.59-1.733a1.55 1.55 0 010-2.102l1.59-1.707zM24 29.438a2.313 2.313 0 01-2.315-2.315A2.313 2.313 0 0124 24.808a2.313 2.313 0 012.315 2.315v.002a2.313 2.313 0 01-2.313 2.313H24zM24 .041a3.647 3.647 0 013.646 3.646A3.647 3.647 0 0124 7.332a3.647 3.647 0 01-3.646-3.646A3.647 3.647 0 0124 .042zm6.563 14.583a.525.525 0 00.485-.71 7.5 7.5 0 00-14.096 0 .522.522 0 00.485.71h13.125zm-.878 26.15a17.868 17.868 0 01-11.377 0 2.082 2.082 0 10-1.448 3.906l.11.038a21.932 21.932 0 0014.055 0 2.083 2.083 0 00-1.337-3.946v.002h-.003zm2.232-32.62a17.748 17.748 0 019.583 18.64 2.083 2.083 0 104.112.657 21.898 21.898 0 00-11.82-23.025 2.082 2.082 0 00-2.8.927 2.084 2.084 0 00.925 2.8zM4.45 29.207a2.084 2.084 0 002.05-2.412c-.142-.925-.21-1.86-.208-2.796a17.63 17.63 0 019.791-15.848 2.083 2.083 0 10-1.862-3.725A21.77 21.77 0 002.125 24c0 1.154.092 2.308.27 3.448a2.082 2.082 0 002.055 1.76zm2.883 4.167a3.647 3.647 0 013.646 3.646 3.647 3.647 0 01-3.646 3.646 3.647 3.647 0 01-3.646-3.646 3.647 3.647 0 013.646-3.646zm6.563 14.583a.525.525 0 00.485-.71 7.5 7.5 0 00-14.096 0 .522.522 0 00.486.71h13.125zm26.77-14.583a3.647 3.647 0 013.647 3.646 3.647 3.647 0 01-3.646 3.646 3.647 3.647 0 01-3.646-3.646 3.647 3.647 0 013.646-3.646zm6.563 14.583a.525.525 0 00.486-.71 7.5 7.5 0 00-14.096 0 .522.522 0 00.485.71H47.23z"/>
</symbol>
<symbol id="product-sports-exercise" viewBox="0 0 52 52"><path fill-rule="nonzero" d="M48.361.556h-4.26a3.196 3.196 0 00-3.194 3.194v6.389c0 .588-.477 1.065-1.064 1.065-.588 0-1.065.477-1.065 1.065v6.388c0 .588.477 1.065 1.065 1.065.587 0 1.064.477 1.064 1.065v6.389a3.196 3.196 0 003.195 3.194h4.26a3.196 3.196 0 003.194-3.194V3.75A3.196 3.196 0 0048.36.556zm-33.01 11.713c0-.588-.476-1.065-1.064-1.065h-2.13a1.065 1.065 0 01-1.064-1.065V3.75A3.196 3.196 0 007.898.556h-4.26A3.196 3.196 0 00.445 3.75v23.426A3.196 3.196 0 003.64 30.37h4.26a3.196 3.196 0 003.194-3.194v-6.389c0-.588.477-1.065 1.064-1.065h1.065a2.13 2.13 0 002.13-2.13V12.27zm15.973-7.454H18.423a4.262 4.262 0 00-2.89 1.129c-.411.387-.743.85-.982 1.362a.532.532 0 00.4.754 4.261 4.261 0 013.595 4.209v6.388a4.259 4.259 0 01-3.352 4.162.533.533 0 00-.302.854l2.653 3.316a4.26 4.26 0 01.929 2.853l-.941 20.71a1.063 1.063 0 001.064 1.115h14.75a1.065 1.065 0 001.065-1.165l-1.904-19.98a4.259 4.259 0 01.426-2.309l2.198-4.398c.296-.592.45-1.243.45-1.904V9.074a4.26 4.26 0 00-4.258-4.26z"/>
</symbol>
<symbol id="product-travel" viewBox="0 0 58 42"><path fill-rule="nonzero" d="M14.713 7.123l9.425 3.945c.302.13.642.13.945 0l10.034-4.417a.614.614 0 000-1.124L22.337.186a2.406 2.406 0 00-1.85 0l-5.772 2.422a2.454 2.454 0 000 4.515h-.002zm42.289-.663c-1.279-3.116-4.812-4.595-7.893-3.304h-.02L17.097 17.24a1.198 1.198 0 01-1.023-.029l-5.742-2.904a2.421 2.421 0 00-2.032-.059L2 16.978a2.457 2.457 0 00-.761 3.978l9.05 9.154a2.397 2.397 0 002.605.54l13.575-5.494a.6.6 0 01.785.332c.058.142.06.303.005.447l-4.727 12.758c-.469 1.264.164 2.674 1.414 3.148a2.38 2.38 0 001.928-.102l6.55-3.313a2.42 2.42 0 001.087-1.095l9.06-18.333c.138-.276.372-.491.66-.599l10.5-3.957c3.081-1.291 4.546-4.865 3.27-7.982z"/>
</symbol>
<symbol id="product-volunteer" viewBox="0 0 50 50"><path fill-rule="nonzero" d="M43.904 16.693a1.016 1.016 0 00-1.306.409l-2.037 3.568a.506.506 0 01-.882 0l-2.037-3.568a1.016 1.016 0 00-1.306-.409 9.188 9.188 0 00-5.04 5.876c-.122.435.058.9.44 1.14.88.555 1.679 1.227 2.376 2 .193.215.468.337.755.337H48.26a1.02 1.02 0 001.018-1.022 9.163 9.163 0 00-5.373-8.33zm-35.16-.621a10.226 10.226 0 00-5.3 8.95 1.02 1.02 0 001.019 1.022H16.39c.555 0 1.086-.226 1.47-.63.79-.83 1.698-1.535 2.698-2.093a.504.504 0 00.151-.764 6.607 6.607 0 01-1.479-4.18 6.01 6.01 0 01.098-1.046 1.023 1.023 0 00-.465-1.053 6.07 6.07 0 00-.352-.204.513.513 0 01-.057-.865c3.626-2.676 4.404-7.794 1.738-11.433A8.128 8.128 0 008.8 2.032C5.176 4.71 4.397 9.826 7.064 13.465A8.139 8.139 0 008.8 15.209a.516.516 0 01-.057.86v.003zm.978-8.55a.51.51 0 01.752-.294 10.06 10.06 0 006.618 1.336.51.51 0 01.579.565 4.078 4.078 0 01-4.46 3.661 4.085 4.085 0 01-3.489-5.268zm16.13 6.256a4.59 4.59 0 014.583 4.6 4.59 4.59 0 01-4.584 4.6 4.59 4.59 0 01-4.583-4.6 4.59 4.59 0 014.583-4.6zm-6.737 14.896a.52.52 0 00-.053.458c.055.153.18.27.334.314.903.27 1.748.704 2.493 1.282.357.278.795.428 1.247.428h9.126a1.02 1.02 0 00.92-1.46c-1.89-4.056-6.697-5.808-10.738-3.911a8.087 8.087 0 00-3.329 2.889zm13.697-12.852a2.039 2.039 0 001.426-.589c.25-.247.479-.517.682-.803a.507.507 0 01.711-.112l.004.002a7.43 7.43 0 008.94 0 .509.509 0 01.714.106l.002.004c.204.286.432.556.682.803a2.032 2.032 0 002.875-.184 2.05 2.05 0 00-.023-2.727c-.269-.268-1.088-1.077-1.088-4.175 0-4.234-3.42-7.666-7.638-7.666-4.22 0-7.64 3.432-7.64 7.666 0 3.098-.814 3.907-1.09 4.175a2.05 2.05 0 00-.02 2.891c.381.388.903.607 1.447.61h.016zm4.223-7.454a5.22 5.22 0 001.084-.384 4.47 4.47 0 001.586-1.264.509.509 0 01.815 0c.426.538.97.971 1.59 1.264.345.167.708.296 1.08.384a.51.51 0 01.374.614 3.541 3.541 0 01-4.262 2.643 3.548 3.548 0 01-2.634-2.643.51.51 0 01.367-.606v-.008zM32.13 40.356H13.542a1.276 1.276 0 01-1.273-1.278c0-.706.57-1.278 1.273-1.278h5.143a2.039 2.039 0 002.04-2.042c0-.278-.056-.554-.166-.81a4.548 4.548 0 00-4.188-2.77H7.685A1.02 1.02 0 006.667 33.2v13.289a1.02 1.02 0 001.018 1.022h21.39c2.812 0 5.092-2.288 5.092-5.111a2.041 2.041 0 00-2.037-2.044zM2.593 30.133a2.041 2.041 0 00-2.037 2.045V47.51c0 1.129.912 2.045 2.037 2.045A2.041 2.041 0 004.63 47.51V32.178a2.041 2.041 0 00-2.037-2.045z"/>
</symbol>
<symbol id="product-workforce" viewBox="0 0 49 50"><path fill-rule="nonzero" d="M32.562 38.843a2.044 2.044 0 00-2.658-1.128 14.451 14.451 0 01-10.733 0 2.047 2.047 0 00-2.68 1.086 2.047 2.047 0 001.085 2.68 18.463 18.463 0 0013.861.022 2.043 2.043 0 001.125-2.66zm.024-26.232a14.316 14.316 0 016.258 11.833c0 .602-.036 1.2-.11 1.798a2.046 2.046 0 001.742 2.308 2.046 2.046 0 002.308-1.742 18.666 18.666 0 00.15-2.363c0-6.089-3.01-11.785-8.044-15.211a2.044 2.044 0 00-2.304 3.377zM8.302 28.533a2.044 2.044 0 002.03-2.291 14.673 14.673 0 01-.11-1.798c0-4.737 2.343-9.167 6.258-11.833a2.044 2.044 0 00-2.304-3.377 18.399 18.399 0 00-8.043 15.21c0 .767.047 1.532.141 2.292a2.043 2.043 0 002.028 1.797zm23.743-8.177a.508.508 0 00.498-.614 8.304 8.304 0 00-16.226 0 .51.51 0 00.499.614h15.229zM24.533.93a5.11 5.11 0 015.111 5.111 5.11 5.11 0 01-5.11 5.112 5.11 5.11 0 01-5.112-5.112 5.11 5.11 0 015.111-5.11zM40.84 42.844a8.32 8.32 0 00-8.115 6.543.51.51 0 00.5.613h15.228a.508.508 0 00.5-.613 8.317 8.317 0 00-8.113-6.543zm.102-12.268a5.11 5.11 0 015.111 5.11 5.11 5.11 0 01-5.111 5.112 5.11 5.11 0 01-5.111-5.111 5.11 5.11 0 015.111-5.111zM8.229 42.844a8.32 8.32 0 00-8.115 6.543.51.51 0 00.5.613h15.228a.508.508 0 00.5-.613 8.317 8.317 0 00-8.113-6.543zm.102-12.268a5.11 5.11 0 015.111 5.11 5.11 5.11 0 01-5.11 5.112 5.11 5.11 0 01-5.112-5.111 5.11 5.11 0 015.111-5.111z"/>
</symbol>
<symbol id="secondary-doc" viewBox="0 0 16 18"><g fill="none" fill-rule="evenodd" stroke-linecap="round" stroke-linejoin="round"><path d="M14.445 4.046c.131.127.205.3.205.479V16.23a.689.689 0 01-.7.677H2.05a.689.689 0 01-.7-.677V2.015c0-.373.314-.677.7-.677h9.305a.71.71 0 01.495.199l2.595 2.51zM3.8 11.831h8.4M3.8 13.862h8.4M3.8 9.8h8.4M3.8 7.769h8.4M3.8 5.738h4.9M3.8 5.738h4.9M3.8 7.769h8.4M3.8 9.8h8.4M3.8 11.831h8.4M3.8 13.862h8.4"/></g>
</symbol>
<symbol id="secondary-image" viewBox="0 0 18 18"><g fill="none" fill-rule="evenodd" stroke-linecap="round" stroke-linejoin="round"><path d="M1.65.95h14.7a.7.7 0 01.7.7v14.7a.7.7 0 01-.7.7H1.65a.7.7 0 01-.7-.7V1.65a.7.7 0 01.7-.7zM17.05 12.85H.95"/><path d="M7.25 3.05a1.75 1.75 0 00-1.722 1.47 1.05 1.05 0 10-.378 2.03h2.1a1.75 1.75 0 100-3.5zM3.05 12.85s1.4-3.5 3.15-3.5 3.15 2.1 3.15 2.1l2.11-3.618a1.174 1.174 0 012.064.07L16 12.85"/></g>
</symbol>
<symbol id="secondary-pdf" viewBox="0 0 16 18"><path fill="none" fill-rule="evenodd" stroke-linecap="round" stroke-linejoin="round" d="M14.784 3.783c.139.13.216.307.216.491v12.03c0 .384-.33.696-.737.696H1.737C1.33 17 1 16.688 1 16.304V1.696C1 1.312 1.33 1 1.737 1h9.795c.195 0 .383.073.52.204l2.732 2.579z"/>
</symbol>
<symbol id="secondary-play" viewBox="0 0 24 24"><path fill="none" stroke-linecap="round" stroke-linejoin="round" d="M1.118 2.118h0a1 1 0 011.447-.894l19.764 9.882h0a1 1 0 010 1.788L2.565 22.776h0a1 1 0 01-1.447-.894z"/>
</symbol>
<symbol id="secondary-video" viewBox="0 0 20 20"><g fill="none" fill-rule="evenodd" stroke-linecap="round" stroke-linejoin="round"><path d="M10.032.8a9.2 9.2 0 110 18.4 9.2 9.2 0 010-18.4z"/><path d="M7.947 7.157a.455.455 0 00-.715.443v5.6a.456.456 0 00.715.442l5.77-2.884c.393-.197.393-.519 0-.716l-5.77-2.885z"/></g>
</symbol>
<symbol id="system-add" viewBox="0 0 22 22"><g fill="none" fill-rule="evenodd" stroke-linecap="round" stroke-linejoin="round"><path d="M10.917 1v19.835M20.835 10.917H1"/></g>
</symbol>
<symbol id="system-badges" viewBox="0 0 22 21"><g fill="none" fill-rule="evenodd" stroke-linecap="round" stroke-linejoin="round"><path d="M3.929 12.775L1.061 17.52a.423.423 0 00.164.591.47.47 0 00.303.053l2.532-.41.882 2.321a.457.457 0 00.579.26.445.445 0 00.235-.186l2.462-3.993M17.968 12.775l2.868 4.745a.423.423 0 01-.164.591.47.47 0 01-.303.053l-2.532-.41-.882 2.321a.457.457 0 01-.579.26.445.445 0 01-.235-.186l-2.462-3.993"/><path d="M10.934 1c4.496 0 8.14 3.492 8.14 7.8s-3.644 7.8-8.14 7.8c-4.495 0-8.14-3.492-8.14-7.8S6.44 1 10.935 1z"/><path d="M11.466 4.778l1.16 2.291h2.26a.545.545 0 01.568.518.524.524 0 01-.182.407l-1.959 1.85 1.086 2.393a.558.558 0 01-.319.741.613.613 0 01-.523-.032l-2.623-1.416-2.623 1.416a.606.606 0 01-.808-.207.545.545 0 01-.034-.502l1.086-2.393-1.96-1.85a.515.515 0 01-.045-.749.562.562 0 01.434-.177h2.26l1.162-2.29a.61.61 0 011.06 0z"/></g>
</symbol>
<symbol id="system-calendar" viewBox="0 0 21 21"><g fill="none" fill-rule="evenodd" stroke-linecap="round" stroke-linejoin="round" stroke-width=".75"><path d="M1.991 2.913h17.5c.483 0 .875.395.875.882v15.882a.879.879 0 01-.875.883h-17.5a.879.879 0 01-.875-.883V3.795c0-.487.392-.882.875-.882zM3.741 1.148v2.647M7.241 1.148v2.647M10.741 1.148v2.647M14.241 1.148v2.647M17.741 1.148v2.647"/><path d="M11.616 7.324h2.625v3.529h0-3.5 0V8.206c0-.487.392-.882.875-.882zM14.241 7.324h2.625c.483 0 .875.395.875.882v2.647h0-3.5 0v-3.53h0zM10.741 10.854h3.5v3.53h-3.5zM14.241 10.854h3.5v3.53h-3.5z"/><path d="M10.741 14.383h3.5v3.53h-3.5zM14.241 14.382h3.5v2.647a.879.879 0 01-.875.883h-2.625 0v-3.53h0zM4.616 10.853h2.625v3.53h0-3.5 0v-2.648c0-.487.392-.882.875-.882zM7.241 10.854h3.5v3.53h-3.5z"/><path d="M3.741 14.382h3.5v3.53h0-2.625a.879.879 0 01-.875-.883v-2.647h0zM7.241 14.383h3.5v3.53h-3.5z"/></g>
</symbol>
<symbol id="system-clear" viewBox="0 0 20 20"><g fill="none" fill-rule="evenodd" stroke-linecap="round" stroke-linejoin="round"><path d="M10 1.375a8.625 8.625 0 110 17.25 8.625 8.625 0 010-17.25zM6.25 6.25l7.5 7.5M13.75 6.25l-7.5 7.5"/></g>
</symbol>
<symbol id="system-close" viewBox="0 0 20 21"><g fill="none" fill-rule="evenodd" stroke-linecap="round" stroke-linejoin="round" stroke-width="1.25"><path d="M1.007 1.395l18.158 18.208M19.165 1.395L1.007 19.603"/></g>
</symbol>
<symbol id="system-down" viewBox="0 0 22 12"><path fill="none" fill-rule="evenodd" stroke-linecap="round" stroke-linejoin="round" d="M1 0l9.674 10.854a.437.437 0 00.651 0L21 0"/>
</symbol>
<symbol id="system-edit" viewBox="0 0 19 19"><g fill="none" fill-rule="evenodd" stroke-linecap="round" stroke-linejoin="round"><path d="M10.426 11.288l-2.846.408.407-2.847 7.319-7.318a1.724 1.724 0 112.438 2.439l-7.318 7.318z"/><path d="M9.625 4.775H2.5a1.5 1.5 0 00-1.5 1.5v10.5a1.5 1.5 0 001.5 1.5H13a1.5 1.5 0 001.5-1.5V9.65"/></g>
</symbol>
<symbol id="system-export" viewBox="0 0 20 20"><g fill="none" fill-rule="evenodd" stroke-linecap="round" stroke-linejoin="round"><path d="M4.375 7.375H11.5M4.375 9.625h4.5M4.375 5.125h5.25M4.375 11.875h3M4.375 14.125h3M8.875 18.625h-6.75a.75.75 0 01-.75-.75V2.125a.75.75 0 01.75-.75h9.97c.198 0 .39.079.53.22l2.78 2.78c.141.14.22.332.22.53v2.47"/><path d="M14.125 9.625a4.5 4.5 0 110 9 4.5 4.5 0 010-9zM14.125 11.875v4.5M14.125 16.375l-1.687-1.687M14.125 16.375l1.688-1.687"/></g>
</symbol>
<symbol id="system-filter" viewBox="0 0 19 21"><path fill="none" fill-rule="evenodd" stroke-linecap="round" stroke-linejoin="round" d="M17.409 2.333a.837.837 0 00-.166-1.166.824.824 0 00-.497-.167H1.828A.83.83 0 001 1.833c0 .18.058.356.166.5l6.464 8.743v8.257c0 .46.37.834.828.834A.824.824 0 008.955 20l1.656-1.25a.835.835 0 00.33-.667v-7.008l6.468-8.742z"/>
</symbol>
<symbol id="system-follow" viewBox="0 0 22 22"><g fill="none" fill-rule="evenodd" stroke-linecap="round" stroke-linejoin="round"><path d="M15.583 10.583a5 5 0 11.001 10 5 5 0 010-10zM15.583 13.083v5M18.083 15.583h-5M7.25 1.417a3.542 3.542 0 110 7.084 3.542 3.542 0 010-7.084zM8.083 15.583H1.417a5.833 5.833 0 018.985-4.908"/></g>
</symbol>
<symbol id="system-help" viewBox="0 0 21 21"><g fill="none" fill-rule="evenodd" stroke-linecap="round" stroke-linejoin="round" stroke-width=".75"><path d="M10.706 1c5.36 0 9.706 4.346 9.706 9.706 0 5.36-4.346 9.706-9.706 9.706-5.36 0-9.706-4.346-9.706-9.706C1 5.346 5.346 1 10.706 1z"/><path d="M10.706 15.117a.22.22 0 100 .441.22.22 0 000-.441h0M8.059 8.945a2.647 2.647 0 113.706 2.425 1.765 1.765 0 00-1.06 1.618v.364"/></g>
</symbol>
<symbol id="system-hobby" viewBox="0 0 17 22"><g fill="none" fill-rule="evenodd" stroke-linecap="round" stroke-linejoin="round"><path d="M1.439 18.333h14.035c.242 0 .438.194.438.434V20.5c0 .24-.196.433-.438.433H1.439A.436.436 0 011 20.5v-1.733c0-.24.196-.434.439-.434zM15.035 18.333c0-1.436-1.178-2.6-2.631-2.6H4.509c-1.454 0-2.632 1.164-2.632 2.6h13.158z"/><path d="M4.509 7.933h7.895v7.8H4.509zM14.158 5.767c0 .239-.197.433-.439.433H3.193a.436.436 0 01-.439-.433V1.433c0-.239.197-.433.439-.433h1.754c.242 0 .439.194.439.433v1.3H7.14v-1.3c0-.239.197-.433.439-.433h1.754c.242 0 .439.194.439.433v1.3h1.754v-1.3c0-.239.197-.433.439-.433h1.754c.242 0 .439.194.439.433v4.334z"/><path d="M3.632 6.2h9.649v1.3c0 .24-.197.433-.439.433H4.07a.436.436 0 01-.438-.433V6.2h0z"/></g>
</symbol>
<symbol id="system-indoor" viewBox="0 0 22 22"><g fill="none" fill-rule="evenodd" stroke-linecap="round" stroke-linejoin="round"><path d="M10.533 10.967h10.4M14 7.5l-3.467 3.467L14 14.433M8.8 2.733h6.5c.24 0 .433.194.433.434v2.166M15.733 16.6v2.167c0 .239-.194.433-.433.433H8.8"/><path d="M1 18.96c0 .203.141.379.34.423l6.933 1.54A.433.433 0 008.8 20.5V1.433a.433.433 0 00-.527-.423L1.34 2.551a.434.434 0 00-.34.423V18.96z"/><path d="M5.767 9.667a1.3 1.3 0 11-.001 2.6 1.3 1.3 0 010-2.6z"/></g>
</symbol>
<symbol id="system-interest" viewBox="0 0 22 21"><g fill="none" fill-rule="evenodd" stroke-linecap="round" stroke-linejoin="round"><path d="M3.907 18.846C.031 14.763.031 8.143 3.907 4.062c3.878-4.082 10.162-4.083 14.037 0 3.877 4.083 3.877 10.702 0 14.785-1.854 1.953-4.859 1.953-6.713.001v-.001L7.568 14.99a.832.832 0 00-1.219.064.944.944 0 00.001 1.22c.674.711.674 1.863 0 2.573-.676.711-1.77.71-2.444 0z"/><path d="M15.5 7.918a1.248 1.248 0 01-1.83 0 1.415 1.415 0 01-.001-1.927 1.248 1.248 0 011.83-.001h.001a1.415 1.415 0 010 1.928zM16.967 10.543c.477 0 .863.408.863.91 0 .501-.386.909-.863.909-.476 0-.863-.408-.863-.91 0-.501.387-.909.863-.909zM13.367 17.24a1.887 1.887 0 010-2.571 1.665 1.665 0 012.44 0c.674.71.674 1.86 0 2.57 0 0 0 0 0 0-.674.71-1.766.71-2.44 0zM10.315 5.025a1.415 1.415 0 010 1.928 1.249 1.249 0 01-1.83.002 1.416 1.416 0 01-.001-1.929s0 0 0 0a1.249 1.249 0 011.83 0z"/></g>
</symbol>
<symbol id="system-menu" viewBox="0 0 22 7"><g fill="none" fill-rule="evenodd" stroke-linecap="round" stroke-linejoin="round"><path d="M3.5 1.417a2.083 2.083 0 110 4.166 2.083 2.083 0 010-4.166zM11 1.417a2.083 2.083 0 110 4.166 2.083 2.083 0 010-4.166zM18.5 1.417a2.083 2.083 0 110 4.166 2.083 2.083 0 010-4.166z"/></g>
</symbol>
<symbol id="system-message" viewBox="0 0 22 22"><g fill="none" fill-rule="evenodd" stroke-linecap="round" stroke-linejoin="round"><path d="M15.583 10.583a5 5 0 11.001 10 5 5 0 010-10zM15.583 13.083v5M18.083 15.583h-5"/><path d="M18.776 9.73c.09-.403.138-.816.14-1.23 0-3.912-3.916-7.083-8.75-7.083-4.833 0-8.75 3.171-8.75 7.083a6.45 6.45 0 002.516 4.967L2.25 17.25l4.697-2.167a10.42 10.42 0 001.974.417"/></g>
</symbol>
<symbol id="system-navigate" viewBox="0 0 18 18"><g fill="none" fill-rule="evenodd" stroke-linecap="round" stroke-linejoin="round"><path d="M17.432 9.25H.568M8.443 17.5l8.732-7.687a.75.75 0 000-1.125L8.443 1"/></g>
</symbol>
<symbol id="system-no" viewBox="0 0 21 19"><g fill="none" fill-rule="evenodd" stroke-linecap="round" stroke-linejoin="round"><path stroke-width=".75" d="M3.5 6.36h0a1.319 1.319 0 01-1.313-1.324c0-.73.589-1.323 1.313-1.323h.875a1.319 1.319 0 01-1.313-1.324c0-.731.589-.882 1.313-.882h5.688c2.494 0 3.062.44 6.124.882v7.5c-2.143 0-5.687 3.97-5.687 7.5 0 1.395-1.915 1.915-2.625-.634-.438-1.572.875-4.66.875-4.66h-7a1.319 1.319 0 01-1.313-1.324c0-.731.589-1.764 1.313-1.764h.875a1.319 1.319 0 01-1.313-1.324c0-.73.589-1.323 1.313-1.323H3.5M16.188.624h4.375v10.589h-4.375z"/><path stroke-width=".75" d="M18.156 2.83a.22.22 0 00.219-.22.22.22 0 00-.219-.22.22.22 0 00-.218.22c0 .121.098.22.218.22"/></g>
</symbol>
<symbol id="system-outdoor" viewBox="0 0 22 22"><g fill="none" fill-rule="evenodd" stroke-linecap="round" stroke-linejoin="round"><path d="M11.636 11.844L9.802 9.498c.33.34.871.346 1.21.016a.857.857 0 00.015-1.211h0L8.613 5.387c.844.84 1.986-.327 1.146-1.273L7.104 1.285a.906.906 0 00-1.32 0L3.13 4.116c-.84.944.302 2.111 1.145 1.273L1.86 8.303a.858.858 0 00.016 1.211c.339.33.88.323 1.21-.016l-1.835 2.346a.858.858 0 00.603 1.464h9.178a.856.856 0 00.603-1.464zM21.198 10.106l-2.057-2.762c.719.797 1.577-.363.976-1.202l-2.058-2.77a.898.898 0 00-1.452 0l-2.053 2.77c-.6.835.258 2 .977 1.202l-2.058 2.762a.848.848 0 00.425 1.385h6.875a.847.847 0 00.425-1.385zM6.444 13.309v3.636M17.333 11.491v2.727M1 17.376a15.428 15.428 0 0113.566 3.203M11.046 16.277A13.622 13.622 0 0121.87 14.71"/></g>
</symbol>
<symbol id="system-popular" viewBox="0 0 22 22"><g fill="none" fill-rule="evenodd" stroke-linecap="round" stroke-linejoin="round"><path d="M8.8 10.534h4.333c.479 0 .867.388.867.866v8.667a.867.867 0 01-.867.867H8.8a.867.867 0 01-.867-.867V11.4c0-.478.389-.866.867-.866zM1.867 15.734h3.466c.479 0 .867.388.867.866v3.467a.867.867 0 01-.867.867H1.867A.867.867 0 011 20.067V16.6c0-.478.388-.866.867-.866zM16.6 18.334h3.467c.478 0 .866.388.866.866v.867a.867.867 0 01-.866.867H16.6a.867.867 0 01-.867-.867V19.2c0-.478.389-.866.867-.866zM12.267 3.6h1.665a.433.433 0 01.253.785L12.8 5.39l.854 1.964a.432.432 0 01-.606.55l-2.08-1.166-2.073 1.166a.434.434 0 01-.606-.55l.854-1.964-1.386-1.006a.433.433 0 01.248-.785h1.663l.896-2.322a.433.433 0 01.808 0l.896 2.322zM3.6 10.534a1.733 1.733 0 11.001 3.465 1.733 1.733 0 01-.001-3.465zM18.333 13.134a1.733 1.733 0 11.001 3.465 1.733 1.733 0 010-3.465z"/></g>
</symbol>
<symbol id="system-preview" viewBox="0 0 20 19"><g fill="none" fill-rule="evenodd" stroke-linecap="round" stroke-linejoin="round" stroke-width="1.25"><path d="M9.353 5.125a3.853 3.853 0 110 7.706 3.853 3.853 0 010-7.706zM12.077 11.702l2.423 2.423"/><path d="M2.875 1h14.25a1.5 1.5 0 011.5 1.5v14.25a1.5 1.5 0 01-1.5 1.5H2.875a1.5 1.5 0 01-1.5-1.5V2.5a1.5 1.5 0 011.5-1.5z"/></g>
</symbol>
<symbol id="system-search" viewBox="0 0 22 21"><g fill="none" fill-rule="evenodd" stroke-linecap="round" stroke-linejoin="round"><path d="M8.083 1.417a6.667 6.667 0 110 13.334 6.667 6.667 0 010-13.334zM12.797 12.797l7.786 7.786"/></g>
</symbol>
<symbol id="system-share" viewBox="0 0 19 19"><g fill="none" fill-rule="evenodd" stroke-linecap="round" stroke-linejoin="round"><path d="M9.625 7.75a2.25 2.25 0 110 4.499 2.25 2.25 0 010-4.5zM13 18.25c-.234-2.544-1.675-4.5-3.375-4.5s-3.14 1.956-3.375 4.5H13z"/><path d="M13.6 13.6a5.625 5.625 0 10-7.955-.005l.005.005"/><path d="M15.724 15.723a8.624 8.624 0 000-12.197A8.625 8.625 0 003.525 15.723"/></g>
</symbol>
<symbol id="system-tutorial" viewBox="0 0 20 21"><g fill="none" fill-rule="evenodd" stroke-linecap="round" stroke-linejoin="round" stroke-width=".75"><path d="M12.736 20.17v-2.5h.838a2.507 2.507 0 002.515-2.5v-2.5h2.358a.419.419 0 00.396-.544c-1.57-4.833-2.708-10.029-7.896-10.972-4.54-.875-8.934 2.075-9.814 6.589-.04.207-.073.415-.097.624a8.085 8.085 0 003.318 7.313v4.49"/><path d="M6.868 7.253c0-1.381 1.125-2.501 2.513-2.502a2.507 2.507 0 012.517 2.499 2.504 2.504 0 01-1.879 2.42.806.806 0 00-.636.767v1.4M9.383 13.503c.116 0 .21.093.21.208a.209.209 0 01-.21.209.209.209 0 01-.21-.209c0-.115.094-.208.21-.208"/></g>
</symbol>
<symbol id="system-up" viewBox="0 0 22 12"><path fill="none" fill-rule="evenodd" stroke-linecap="round" stroke-linejoin="round" d="M21 12L11.326 1.146a.437.437 0 00-.651 0L1 12"/>
</symbol>
<symbol id="system-user" viewBox="0 0 21 22"><g fill="none" fill-rule="evenodd" stroke-linecap="round" stroke-linejoin="round"><path d="M10.582 1.417c5.292 0 9.583 4.29 9.583 9.583s-4.29 9.583-9.583 9.583S.999 16.293.999 11s4.29-9.583 9.583-9.583z"/><path d="M10.582 4.75a3.542 3.542 0 110 7.084 3.542 3.542 0 010-7.084zM15.846 16.417a5.823 5.823 0 00-10.528 0"/></g>
</symbol>
<symbol id="system-visibility" viewBox="0 0 21 22"><g fill="none" fill-rule="evenodd" stroke-linecap="round" stroke-linejoin="round"><path d="M13.499 13.918h5.833c.46 0 .833.373.833.833v4.999c0 .46-.373.833-.833.833h-5.833a.834.834 0 01-.834-.833v-5c0-.46.374-.832.834-.832z"/><path d="M16.415 16.26a1.042 1.042 0 110 2.085 1.042 1.042 0 010-2.084zM18.499 12.667a2.083 2.083 0 10-4.167 0v1.25h4.167v-1.25zM10.582 3.917a2.917 2.917 0 110 5.833 2.917 2.917 0 010-5.833zM10.582 5.583a1.25 1.25 0 11-1.25 1.25"/><path d="M17.869 9.21a19.155 19.155 0 002.193-2.103.418.418 0 000-.547c-.97-1.1-4.845-5.143-9.48-5.143-4.635 0-8.511 4.043-9.48 5.143a.418.418 0 000 .547c.969 1.1 4.845 5.143 9.48 5.143a8.615 8.615 0 002.148-.28"/></g>
</symbol>
<symbol id="system-warning" viewBox="0 0 24 22"><g fill="none" fill-rule="evenodd" stroke-linecap="round" stroke-linejoin="round"><path d="M22.876 19.71c.187.232.128.555-.132.722a.634.634 0 01-.431.09H1.949c-.315.046-.613-.145-.665-.427a.474.474 0 01.102-.385l10.29-18.374c.25-.447.66-.447.91 0l10.29 18.374zM12.131 14.617V8.254"/><path d="M12.122 16.435c-.139.003-.249.105-.246.229v.003c.006.125.12.223.26.223h.004c.139-.003.249-.105.246-.228v-.004c-.006-.123-.118-.22-.255-.223h-.005"/></g>
</symbol>
<symbol id="system-website" viewBox="0 0 20 20"><g fill="none" fill-rule="evenodd" stroke-linecap="round" stroke-linejoin="round"><path d="M2.423 14.125h5.702M2.884 5.125h14.238M7.375 9.625H1.383M9.452 1.395c-4.5 4.875-4.418 11.218.082 17.218M10.547 1.395A12.094 12.094 0 0113.75 7.75M18.625 10A8.625 8.625 0 1010 18.625"/><path d="M15.974 13.306l1.643-1.644a.375.375 0 00-.163-.626L9.28 8.707a.375.375 0 00-.463.463l2.325 8.175a.375.375 0 00.627.163l1.537-1.537 2.387 2.386a.375.375 0 00.53 0l2.138-2.132a.375.375 0 000-.53l-2.386-2.389z"/></g>
</symbol>
<symbol id="system-yes" viewBox="0 0 21 19"><g fill="none" fill-rule="evenodd" stroke-linecap="round" stroke-linejoin="round"><path stroke-width=".75" d="M17.5 12.817h0c.724 0 1.313.593 1.313 1.323s-.588 1.324-1.313 1.324h-.875c.724 0 1.313.593 1.313 1.323 0 .732-.588.883-1.313.883h-5.688c-2.494 0-3.062-.441-6.124-.883v-7.5c2.143 0 5.687-3.97 5.687-7.5 0-1.395 1.915-1.914 2.625.635.438 1.571-.875 4.66-.875 4.66h7c.724 0 1.313.592 1.313 1.323s-.588 1.765-1.313 1.765h-.875c.724 0 1.313.593 1.313 1.323s-.588 1.324-1.313 1.324H17.5M.438 7.964h4.375v10.588H.438z"/><path stroke-width=".75" d="M2.844 16.346a.22.22 0 00-.219.22c0 .123.098.221.219.221a.22.22 0 00.219-.22.22.22 0 00-.22-.22"/></g>
</symbol></svg>