<svg xmlns="http://www.w3.org/2000/svg" viewBox="0 0 52 52"><path fill-rule="nonzero" d="M2.574 7.898a2.13 2.13 0 000 4.26H19.08a.533.533 0 00.532-.533V8.431a.533.533 0 00-.532-.533H2.574zm46.852 4.26a2.13 2.13 0 000-4.26H39.204a.531.531 0 00-.528.464 12.097 12.097 0 01-.803 3.063.538.538 0 00.05.498c.1.147.267.234.444.234h11.059zm-36.691 7.285a.534.534 0 00-.388-.897H2.574a2.13 2.13 0 000 4.26h7.507c.198 0 .381-.111.473-.286a13.924 13.924 0 012.18-3.077zm17.524.715c0 .205.12.392.305.482a10.63 10.63 0 012.88 2.014c.1.096.233.152.372.152h15.61a2.13 2.13 0 000-4.26H31.439a.538.538 0 00-.32.107l-.638.49a.546.546 0 00-.213.426l-.009.59zM2.574 29.194a2.13 2.13 0 000 4.26h6.389a.533.533 0 00.513-.675 13.937 13.937 0 01-.498-3.078.531.531 0 00-.53-.507H2.574zm33.816 3.62a.533.533 0 00.522.64h12.514a2.13 2.13 0 000-4.26H37.168a.534.534 0 00-.532.558c0 .169.012.337.012.507 0 .858-.087 1.715-.258 2.556zM30.26 43.57c0 .294.238.533.532.533h18.634a2.13 2.13 0 000-4.26H32.51a.528.528 0 00-.345.128 13.22 13.22 0 01-1.65 1.201.533.533 0 00-.256.454v1.944zm-18.586-2.951a.532.532 0 00-.475-.775H2.574a2.13 2.13 0 000 4.259h7.986a.533.533 0 00.533-.533v-.532a5.283 5.283 0 01.581-2.42zm15.817-17.663a.53.53 0 01-.426-.52v-4.46a.546.546 0 01.213-.425l5.085-3.834a8.924 8.924 0 003.22-6.883 6.389 6.389 0 10-12.777 0v8.495a.53.53 0 01-.213.426l-6.528 4.922-.021.017c-4.592 3.835-5.203 10.665-1.367 15.257a10.832 10.832 0 007.63 3.865.532.532 0 01.499.532v4.82a2.13 2.13 0 01-4.26 0v-2.13a2.13 2.13 0 00-4.259 0v2.13a6.388 6.388 0 1012.778 0v-5.503c0-.218.134-.416.336-.494a9.601 9.601 0 006.053-8.91 7.465 7.465 0 00-5.963-7.305zm-.426-16.122a2.13 2.13 0 014.26 0 4.641 4.641 0 01-1.609 3.542l-1.8 1.356a.534.534 0 01-.851-.425V6.833zm-4.26 28.175c0 .296-.24.535-.534.535-.021 0-.04-.002-.062-.004a6.577 6.577 0 01-3.507-11.513l3.252-2.456a.534.534 0 01.852.426v1.201a.533.533 0 01-.284.471 7.454 7.454 0 00-3.976 6.591 2.13 2.13 0 003.559 1.578.579.579 0 01.392-.15c.17 0 .309.138.309.308v3.013zm5.205-1.405a.534.534 0 01-.945-.337V28.13a.533.533 0 01.852-.426 3.192 3.192 0 011.277 2.555 5.294 5.294 0 01-1.184 3.344z"/></svg>