<svg xmlns="http://www.w3.org/2000/svg" viewBox="0 0 50 50"><path d="M47.917 27.083H36.458a1.042 1.042 0 01-1.041-1.041v-3.125a10.436 10.436 0 00-7.575-10.023 1.042 1.042 0 01-.759-1.002v-1.475c0-.575.467-1.042 1.042-1.042h4.694a2.608 2.608 0 002.598-2.604V2.604A2.608 2.608 0 0032.819 0h-8.334a1.563 1.563 0 00-1.568 1.556v10.336c0 .464-.309.875-.757 1.002a10.435 10.435 0 00-7.577 10.023v3.125a1.04 1.04 0 01-1.041 1.041H2.083A2.111 2.111 0 000 29.167v18.75C0 49.066.933 50 2.083 50h19.792c.575 0 1.042-.467 1.042-1.042v-9.375a2.084 2.084 0 014.166 0v9.375c0 .575.467 1.042 1.042 1.042h19.792c1.137.012 2.07-.9 2.083-2.038V29.166c0-1.15-.933-2.083-2.083-2.083zM11.985 43.75a1.04 1.04 0 01-1.041 1.041H6.777a1.042 1.042 0 01-1.042-1.041v-2.084c0-.575.467-1.041 1.042-1.041h4.167a1.04 1.04 0 011.041 1.041v2.084zm0-8.334c0 .575-.466 1.042-1.041 1.042H6.777a1.042 1.042 0 01-1.042-1.042v-2.083c0-.575.467-1.041 1.042-1.041h4.167a1.04 1.04 0 011.041 1.041v2.083zM25 26.042a3.126 3.126 0 010-6.25 3.126 3.126 0 010 6.25zM45.313 43.75c0 .575-.467 1.041-1.042 1.041h-4.167a1.042 1.042 0 01-1.041-1.041v-2.084a1.04 1.04 0 011.041-1.041h4.167a1.04 1.04 0 011.041 1.041v2.084zm0-8.334c0 .575-.467 1.042-1.042 1.042h-4.167a1.042 1.042 0 01-1.041-1.042v-2.083a1.04 1.04 0 011.041-1.041h4.167a1.04 1.04 0 011.041 1.041v2.083z"/></svg>