<svg xmlns="http://www.w3.org/2000/svg" viewBox="0 0 50 40"><path fill-rule="nonzero" d="M47.708 24.486c-.36-8.47-5.329-16.049-12.916-19.707a1.036 1.036 0 00-1.39.492c-.06.123-.094.26-.102.397l-.648 11.97c-.12 2.12-1.862 3.78-3.97 3.78h-7.065c-2.109 0-3.852-1.657-3.973-3.78L16.99 5.543a1.043 1.043 0 00-1.477-.897C7.764 8.237 2.66 15.897 2.291 24.486A3.437 3.437 0 000 27.732v2.291c.002 1.897 1.527 3.434 3.408 3.436h4.615l.694 3.055a3.398 3.398 0 003.323 2.672h25.92a3.398 3.398 0 003.323-2.672l.694-3.055h4.615c1.88-.002 3.406-1.54 3.408-3.436v-2.29c0-1.465-.92-2.767-2.292-3.247zm-14.754 2.673a1.71 1.71 0 011.704 1.718 1.71 1.71 0 01-1.704 1.718H17.046a1.713 1.713 0 01-1.706-1.716c0-.95.762-1.718 1.702-1.72h15.912zm-11.912-9.704a.565.565 0 00.566.54h7.06a.565.565 0 00.567-.54l.867-16.019a.581.581 0 00-.15-.441.562.562 0 00-.417-.18h-8.787a.568.568 0 00-.569.6l.863 16.04z"/></svg>