<svg xmlns="http://www.w3.org/2000/svg" viewBox="0 0 49 50"><path fill-rule="nonzero" d="M32.562 38.843a2.044 2.044 0 00-2.658-1.128 14.451 14.451 0 01-10.733 0 2.047 2.047 0 00-2.68 1.086 2.047 2.047 0 001.085 2.68 18.463 18.463 0 0013.861.022 2.043 2.043 0 001.125-2.66zm.024-26.232a14.316 14.316 0 016.258 11.833c0 .602-.036 1.2-.11 1.798a2.046 2.046 0 001.742 2.308 2.046 2.046 0 002.308-1.742 18.666 18.666 0 00.15-2.363c0-6.089-3.01-11.785-8.044-15.211a2.044 2.044 0 00-2.304 3.377zM8.302 28.533a2.044 2.044 0 002.03-2.291 14.673 14.673 0 01-.11-1.798c0-4.737 2.343-9.167 6.258-11.833a2.044 2.044 0 00-2.304-3.377 18.399 18.399 0 00-8.043 15.21c0 .767.047 1.532.141 2.292a2.043 2.043 0 002.028 1.797zm23.743-8.177a.508.508 0 00.498-.614 8.304 8.304 0 00-16.226 0 .51.51 0 00.499.614h15.229zM24.533.93a5.11 5.11 0 015.111 5.111 5.11 5.11 0 01-5.11 5.112 5.11 5.11 0 01-5.112-5.112 5.11 5.11 0 015.111-5.11zM40.84 42.844a8.32 8.32 0 00-8.115 6.543.51.51 0 00.5.613h15.228a.508.508 0 00.5-.613 8.317 8.317 0 00-8.113-6.543zm.102-12.268a5.11 5.11 0 015.111 5.11 5.11 5.11 0 01-5.111 5.112 5.11 5.11 0 01-5.111-5.111 5.11 5.11 0 015.111-5.111zM8.229 42.844a8.32 8.32 0 00-8.115 6.543.51.51 0 00.5.613h15.228a.508.508 0 00.5-.613 8.317 8.317 0 00-8.113-6.543zm.102-12.268a5.11 5.11 0 015.111 5.11 5.11 5.11 0 01-5.11 5.112 5.11 5.11 0 01-5.112-5.111 5.11 5.11 0 015.111-5.111z"/></svg>