<svg xmlns="http://www.w3.org/2000/svg" viewBox="0 0 50 50"><path fill-rule="nonzero" d="M43.904 16.693a1.016 1.016 0 00-1.306.409l-2.037 3.568a.506.506 0 01-.882 0l-2.037-3.568a1.016 1.016 0 00-1.306-.409 9.188 9.188 0 00-5.04 5.876c-.122.435.058.9.44 1.14.88.555 1.679 1.227 2.376 2 .193.215.468.337.755.337H48.26a1.02 1.02 0 001.018-1.022 9.163 9.163 0 00-5.373-8.33zm-35.16-.621a10.226 10.226 0 00-5.3 8.95 1.02 1.02 0 001.019 1.022H16.39c.555 0 1.086-.226 1.47-.63.79-.83 1.698-1.535 2.698-2.093a.504.504 0 00.151-.764 6.607 6.607 0 01-1.479-4.18 6.01 6.01 0 01.098-1.046 1.023 1.023 0 00-.465-1.053 6.07 6.07 0 00-.352-.204.513.513 0 01-.057-.865c3.626-2.676 4.404-7.794 1.738-11.433A8.128 8.128 0 008.8 2.032C5.176 4.71 4.397 9.826 7.064 13.465A8.139 8.139 0 008.8 15.209a.516.516 0 01-.057.86v.003zm.978-8.55a.51.51 0 01.752-.294 10.06 10.06 0 006.618 1.336.51.51 0 01.579.565 4.078 4.078 0 01-4.46 3.661 4.085 4.085 0 01-3.489-5.268zm16.13 6.256a4.59 4.59 0 014.583 4.6 4.59 4.59 0 01-4.584 4.6 4.59 4.59 0 01-4.583-4.6 4.59 4.59 0 014.583-4.6zm-6.737 14.896a.52.52 0 00-.053.458c.055.153.18.27.334.314.903.27 1.748.704 2.493 1.282.357.278.795.428 1.247.428h9.126a1.02 1.02 0 00.92-1.46c-1.89-4.056-6.697-5.808-10.738-3.911a8.087 8.087 0 00-3.329 2.889zm13.697-12.852a2.039 2.039 0 001.426-.589c.25-.247.479-.517.682-.803a.507.507 0 01.711-.112l.004.002a7.43 7.43 0 008.94 0 .509.509 0 01.714.106l.002.004c.204.286.432.556.682.803a2.032 2.032 0 002.875-.184 2.05 2.05 0 00-.023-2.727c-.269-.268-1.088-1.077-1.088-4.175 0-4.234-3.42-7.666-7.638-7.666-4.22 0-7.64 3.432-7.64 7.666 0 3.098-.814 3.907-1.09 4.175a2.05 2.05 0 00-.02 2.891c.381.388.903.607 1.447.61h.016zm4.223-7.454a5.22 5.22 0 001.084-.384 4.47 4.47 0 001.586-1.264.509.509 0 01.815 0c.426.538.97.971 1.59 1.264.345.167.708.296 1.08.384a.51.51 0 01.374.614 3.541 3.541 0 01-4.262 2.643 3.548 3.548 0 01-2.634-2.643.51.51 0 01.367-.606v-.008zM32.13 40.356H13.542a1.276 1.276 0 01-1.273-1.278c0-.706.57-1.278 1.273-1.278h5.143a2.039 2.039 0 002.04-2.042c0-.278-.056-.554-.166-.81a4.548 4.548 0 00-4.188-2.77H7.685A1.02 1.02 0 006.667 33.2v13.289a1.02 1.02 0 001.018 1.022h21.39c2.812 0 5.092-2.288 5.092-5.111a2.041 2.041 0 00-2.037-2.044zM2.593 30.133a2.041 2.041 0 00-2.037 2.045V47.51c0 1.129.912 2.045 2.037 2.045A2.041 2.041 0 004.63 47.51V32.178a2.041 2.041 0 00-2.037-2.045z"/></svg>