<svg xmlns="http://www.w3.org/2000/svg" viewBox="0 0 68 46"><path fill-rule="nonzero" d="M50.473 27.089l-14.07 4.656a5.957 5.957 0 01-3.657 0L18.67 27.09a2.545 2.545 0 00-2.315.347 2.546 2.546 0 00-1.07 2.076v5.576a5.894 5.894 0 003.95 5.545l12.25 4.299a9.393 9.393 0 006.172 0l12.26-4.304a5.895 5.895 0 003.945-5.54v-5.576c0-.823-.396-1.595-1.07-2.076a2.54 2.54 0 00-2.319-.347zM67.23 13.003c0-1.1-.71-2.075-1.76-2.423L35.385.613a2.598 2.598 0 00-1.625 0L3.673 10.58A4.428 4.428 0 00.63 14.776v14.822c0 2.116 1.728 3.834 3.857 3.834 2.129 0 3.857-1.718 3.857-3.834v-10.85c0-.71.581-1.283 1.296-1.278.134 0 .267.02.396.061l23.724 7.861c.524.179 1.1.179 1.625 0l30.086-9.967a2.557 2.557 0 001.759-2.422z"/></svg>