<svg xmlns="http://www.w3.org/2000/svg" viewBox="0 0 50 42"><path fill-rule="nonzero" d="M50 2.1c0-.87-.7-1.575-1.563-1.575H1.563A1.57 1.57 0 000 2.1c0 .87.7 1.575 1.563 1.575h1.562c.575 0 1.042.47 1.042 1.05v35.7c0 .58.466 1.05 1.041 1.05H18.75c.575 0 1.042-.47 1.042-1.05v-5.25c0-2.9 2.33-5.25 5.208-5.25 2.877 0 5.208 2.35 5.208 5.25v5.25c0 .58.467 1.05 1.042 1.05h13.542c.575 0 1.041-.47 1.041-1.05v-35.7c0-.58.467-1.05 1.042-1.05h1.563A1.57 1.57 0 0050 2.1zM19.27 25.725h-8.332a1.57 1.57 0 01-1.563-1.575c0-.87.7-1.575 1.563-1.575h8.333a1.57 1.57 0 011.562 1.575c0 .87-.7 1.575-1.562 1.575zm0-8.4h-8.332a1.57 1.57 0 01-1.563-1.575c0-.87.7-1.575 1.563-1.575h8.333a1.57 1.57 0 011.562 1.575c0 .87-.7 1.575-1.562 1.575zm0-8.4h-8.332A1.57 1.57 0 019.374 7.35c0-.87.7-1.575 1.563-1.575h8.333a1.57 1.57 0 011.562 1.575c0 .87-.7 1.575-1.562 1.575zm19.793 16.8h-8.334a1.57 1.57 0 01-1.562-1.575c0-.87.7-1.575 1.562-1.575h8.334a1.57 1.57 0 011.562 1.575c0 .87-.7 1.575-1.563 1.575zm0-8.4h-8.334a1.57 1.57 0 01-1.562-1.575c0-.87.7-1.575 1.562-1.575h8.334a1.57 1.57 0 011.562 1.575c0 .87-.7 1.575-1.563 1.575zm1.562-9.975c0 .87-.7 1.575-1.563 1.575H30.73a1.57 1.57 0 01-1.562-1.575c0-.87.7-1.575 1.562-1.575h8.334a1.57 1.57 0 011.562 1.575z"/></svg>