<svg xmlns="http://www.w3.org/2000/svg" viewBox="0 0 50 50"><path fill-rule="nonzero" d="M48.958 43.75H34.375c-.575 0-1.042.467-1.042 1.042v2.083c0 1.725 1.4 3.125 3.125 3.125h10.417C48.6 50 50 48.6 50 46.875v-2.083c0-.575-.467-1.042-1.042-1.042zm-2.083-19.792H24.479a.517.517 0 01-.52-.516v-2.088c0-.287.233-.52.52-.52h8.854a4.166 4.166 0 004.167-4.167v-12.5A4.166 4.166 0 0033.333 0H10.417A4.166 4.166 0 006.25 4.167v12.5a4.166 4.166 0 004.167 4.166h8.854c.287 0 .52.234.52.521v2.084a.517.517 0 01-.516.52H3.125A3.126 3.126 0 000 27.083v20.834a2.084 2.084 0 004.167 0V32.292c0-.575.466-1.042 1.041-1.042h43.75c.575 0 1.042-.467 1.042-1.042v-3.125c0-1.725-1.4-3.125-3.125-3.125zM10.417 4.167h22.916v12.5H10.417v-12.5zm23.958 30.206h14.583c.575 0 1.042.467 1.042 1.042v4.166c0 .575-.467 1.042-1.042 1.042H34.375a1.042 1.042 0 01-1.042-1.042v-4.166c0-.575.467-1.042 1.042-1.042z"/></svg>