<svg xmlns="http://www.w3.org/2000/svg" viewBox="0 0 48 48"><path fill-rule="nonzero" d="M32.698 24.358a2.065 2.065 0 00-1.967-3.423l-2.27.525a1.535 1.535 0 01-1.813-1.041l-.681-2.252a2.053 2.053 0 00-3.934 0l-.68 2.241a1.535 1.535 0 01-1.813 1.042l-2.271-.525a2.063 2.063 0 00-1.967 3.423l1.59 1.735a1.55 1.55 0 010 2.102l-1.59 1.715a2.065 2.065 0 001.967 3.423l2.27-.527c.788-.181 1.58.279 1.813 1.052l.681 2.24a2.053 2.053 0 003.934 0l.68-2.24a1.534 1.534 0 011.813-1.052l2.271.527a2.066 2.066 0 001.967-3.423l-1.59-1.733a1.55 1.55 0 010-2.102l1.59-1.707zM24 29.438a2.313 2.313 0 01-2.315-2.315A2.313 2.313 0 0124 24.808a2.313 2.313 0 012.315 2.315v.002a2.313 2.313 0 01-2.313 2.313H24zM24 .041a3.647 3.647 0 013.646 3.646A3.647 3.647 0 0124 7.332a3.647 3.647 0 01-3.646-3.646A3.647 3.647 0 0124 .042zm6.563 14.583a.525.525 0 00.485-.71 7.5 7.5 0 00-14.096 0 .522.522 0 00.485.71h13.125zm-.878 26.15a17.868 17.868 0 01-11.377 0 2.082 2.082 0 10-1.448 3.906l.11.038a21.932 21.932 0 0014.055 0 2.083 2.083 0 00-1.337-3.946v.002h-.003zm2.232-32.62a17.748 17.748 0 019.583 18.64 2.083 2.083 0 104.112.657 21.898 21.898 0 00-11.82-23.025 2.082 2.082 0 00-2.8.927 2.084 2.084 0 00.925 2.8zM4.45 29.207a2.084 2.084 0 002.05-2.412c-.142-.925-.21-1.86-.208-2.796a17.63 17.63 0 019.791-15.848 2.083 2.083 0 10-1.862-3.725A21.77 21.77 0 002.125 24c0 1.154.092 2.308.27 3.448a2.082 2.082 0 002.055 1.76zm2.883 4.167a3.647 3.647 0 013.646 3.646 3.647 3.647 0 01-3.646 3.646 3.647 3.647 0 01-3.646-3.646 3.647 3.647 0 013.646-3.646zm6.563 14.583a.525.525 0 00.485-.71 7.5 7.5 0 00-14.096 0 .522.522 0 00.486.71h13.125zm26.77-14.583a3.647 3.647 0 013.647 3.646 3.647 3.647 0 01-3.646 3.646 3.647 3.647 0 01-3.646-3.646 3.647 3.647 0 013.646-3.646zm6.563 14.583a.525.525 0 00.486-.71 7.5 7.5 0 00-14.096 0 .522.522 0 00.485.71H47.23z"/></svg>