<svg xmlns="http://www.w3.org/2000/svg" viewBox="0 0 50 51"><path fill-rule="nonzero" d="M50 25.292c0-.921-.604-1.732-1.485-1.996L33.93 18.92a2.083 2.083 0 00-2.593 1.398 1.996 1.996 0 00-.055.598.033.033 0 00-.033.033v20.446c0 .477-.325.894-.788 1.01l-10.416 2.609a1.042 1.042 0 01-1.296-1.01V25.118a.037.037 0 00-.035-.036 2.06 2.06 0 00-1.475-2.004L2.656 18.913A2.08 2.08 0 000 20.917v22.708c0 .92.604 1.731 1.485 1.996l14.584 4.375c.35.098.719.108 1.075.031l15.869-3.975a1.03 1.03 0 01.54 0l13.79 3.94A2.08 2.08 0 0050 48V25.292zM4.167 25.06a1.042 1.042 0 011.327-1.002l8.333 2.38c.448.127.756.537.756 1.002V43.8a1.042 1.042 0 01-1.341.998l-8.334-2.5a1.04 1.04 0 01-.741-.994V25.06zm41.666 18.796a1.042 1.042 0 01-1.327 1.002l-8.333-2.38a1.042 1.042 0 01-.756-1.003v-16.36a1.042 1.042 0 011.341-.998l8.334 2.5c.44.133.741.537.741.998v16.241zM22.917 14.327v21.694a2.084 2.084 0 004.166 0V14.327A7.293 7.293 0 0022.917.352a7.292 7.292 0 000 13.975z"/></svg>