<svg xmlns="http://www.w3.org/2000/svg" viewBox="0 0 52 52"><path d="M48.361.556h-4.26a3.196 3.196 0 00-3.194 3.194v6.389c0 .588-.477 1.065-1.064 1.065-.588 0-1.065.477-1.065 1.065v6.388c0 .588.477 1.065 1.065 1.065.587 0 1.064.477 1.064 1.065v6.389a3.196 3.196 0 003.195 3.194h4.26a3.196 3.196 0 003.194-3.194V3.75A3.196 3.196 0 0048.36.556zm-33.01 11.713c0-.588-.476-1.065-1.064-1.065h-2.13a1.065 1.065 0 01-1.064-1.065V3.75A3.196 3.196 0 007.898.556h-4.26A3.196 3.196 0 00.445 3.75v23.426A3.196 3.196 0 003.64 30.37H7.9a3.196 3.196 0 003.194-3.194v-6.389c0-.588.477-1.065 1.064-1.065h1.065a2.13 2.13 0 002.13-2.13V12.27zm15.973-7.454H18.423a4.262 4.262 0 00-2.89 1.129 4.46 4.46 0 00-.982 1.362.532.532 0 00.4.754 4.261 4.261 0 013.595 4.209v6.388a4.259 4.259 0 01-3.352 4.162.533.533 0 00-.302.854l2.653 3.316a4.26 4.26 0 01.929 2.853l-.941 20.71a1.063 1.063 0 001.064 1.115h14.75a1.065 1.065 0 001.065-1.165l-1.904-19.98a4.259 4.259 0 01.426-2.309l2.198-4.398c.296-.592.45-1.243.45-1.904V9.074a4.26 4.26 0 00-4.258-4.26z"/></svg>