<svg xmlns="http://www.w3.org/2000/svg" viewBox="0 0 45 56"><path fill-rule="nonzero" d="M44.293 38.306c0-5.114-4.179-9.26-9.333-9.26h-1.167V27.89a2.325 2.325 0 00-2.333-2.315h-28a2.325 2.325 0 00-2.333 2.315v21.99c0 3.197 2.61 5.788 5.833 5.788h21c3.222 0 5.833-2.59 5.833-5.787v-2.315h1.167c5.154 0 9.333-4.146 9.333-9.26zm-9.333 4.63h-.583a.577.577 0 01-.584-.575V34.255a.577.577 0 01.579-.58h.588c2.578 0 4.667 2.073 4.667 4.63 0 2.558-2.089 4.63-4.667 4.63zM7.403 6.74a.574.574 0 00.04-.993l-5.52-3.542a1.172 1.172 0 00-1.601.398 1.156 1.156 0 00-.15.785l.985 5.856a.583.583 0 00.854.412l5.392-2.916zM2.73 11.903a.576.576 0 00-.234.773l5.18 9.954c.2.384.602.625 1.039.625h7c.644 0 1.166-.519 1.166-1.158 0-.194-.049-.386-.144-.558L9.676 8.808a.59.59 0 00-.791-.232L2.73 11.903zm23.083 5.09h-.016a8.199 8.199 0 01-1.484-.806.59.59 0 00-.817.156c-.01.013-.016.027-.025.039l-2.898 5.157a1.154 1.154 0 00.452 1.574c.173.095.369.146.567.146h4.275c.485 0 .92-.296 1.092-.747l1.563-4.13a.58.58 0 00-.466-.78 8.288 8.288 0 01-2.243-.609zM33.93 6.627C33.205 3.382 30.646.852 27.372.146a1.167 1.167 0 00-1.41.85c-.076.312-.018.643.16.911 1.234 1.864.49 2.968-.824 4.616a8.419 8.419 0 00-1.265 1.896c-1.118 2.356-.098 5.164 2.277 6.273.133.063.27.118.409.17 1.708.863 3.77.629 5.238-.596a7.744 7.744 0 001.972-7.639z"/></svg>