<?xml version="1.0" encoding="utf-8"?>
<svg xmlns="http://www.w3.org/2000/svg">
<symbol id="doc" viewBox="0 0 16 18"><path fill="none" fill-rule="evenodd" stroke-linecap="round" stroke-linejoin="round" d="M14.445 4.046c.131.127.205.3.205.479V16.23a.689.689 0 01-.7.677H2.05a.689.689 0 01-.7-.677V2.015a.69.69 0 01.7-.677h9.305a.71.71 0 01.495.199l2.595 2.51zM3.8 11.831h8.4m-8.4 2.031h8.4M3.8 9.8h8.4M3.8 7.769h8.4M3.8 5.738h4.9m-4.9 0h4.9M3.8 7.769h8.4M3.8 9.8h8.4m-8.4 2.031h8.4m-8.4 2.031h8.4"/>
</symbol>
<symbol id="icons">
</symbol>
<symbol id="image" viewBox="0 0 18 18"><g fill="none" fill-rule="evenodd" stroke-linecap="round" stroke-linejoin="round"><path d="M1.65.95h14.7a.7.7 0 01.7.7v14.7a.7.7 0 01-.7.7H1.65a.7.7 0 01-.7-.7V1.65a.7.7 0 01.7-.7zm15.4 11.9H.95"/><path d="M7.25 3.05a1.75 1.75 0 00-1.722 1.47 1.05 1.05 0 10-.378 2.03h2.1a1.75 1.75 0 100-3.5zm-4.2 9.8s1.4-3.5 3.15-3.5 3.15 2.1 3.15 2.1l2.11-3.618a1.174 1.174 0 012.064.07L16 12.85"/></g>
</symbol>
<symbol id="pdf" viewBox="0 0 16 18"><path fill="none" d="M14.784 3.783c.139.13.216.307.216.491v12.03c0 .384-.33.696-.737.696H1.737C1.33 17 1 16.688 1 16.304V1.696C1 1.312 1.33 1 1.737 1h9.795c.195 0 .383.073.52.204l2.732 2.579z"/>
</symbol>
<symbol id="play" viewBox="0 0 24 24"><path fill="none" d="M1.118 2.118a1 1 0 011.447-.894l19.764 9.882a1 1 0 010 1.788L2.565 22.776a1 1 0 01-1.447-.894z"/>
</symbol>
<symbol id="video" viewBox="0 0 20 20"><g fill="none" fill-rule="evenodd" stroke-linecap="round" stroke-linejoin="round"><path d="M10.032.8a9.2 9.2 0 110 18.4 9.2 9.2 0 010-18.4z"/><path d="M7.947 7.157a.455.455 0 00-.715.443v5.6a.456.456 0 00.715.442l5.77-2.884c.393-.197.393-.519 0-.716l-5.77-2.885z"/></g>
</symbol></svg>